<?xml version="1.0" encoding="UTF-8"?>
<svg id="Lager_2" data-name="Lager 2" xmlns="http://www.w3.org/2000/svg" xmlns:xlink="http://www.w3.org/1999/xlink" viewBox="0 0 942.37 275.16">
  <defs>
    <style>
      .cls-1 {
        fill-rule: evenodd;
      }

      .cls-1, .cls-2 {
        fill: #fff;
      }

      .cls-3 {
        fill: #ec6607;
      }

      .cls-3, .cls-4, .cls-5 {
        stroke: #fff;
        stroke-miterlimit: 10;
        stroke-width: 1.42px;
      }

      .cls-6 {
        fill: #c0b2da;
      }

      .cls-7 {
        fill: #e50075;
      }

      .cls-4 {
        fill: #fd0;
      }

      .cls-8 {
        fill: url(#Namnlös_övertoning_29);
      }

      .cls-5 {
        fill: #95c11e;
      }

      .cls-9 {
        fill: #008bd2;
      }
    </style>
    <linearGradient id="Namnlös_övertoning_29" data-name="Namnlös övertoning 29" x1="940.11" y1="-167.86" x2="-267.69" y2="566.04" gradientUnits="userSpaceOnUse">
      <stop offset=".45" stop-color="#4b2582"/>
      <stop offset="1" stop-color="#e50075"/>
    </linearGradient>
  </defs>
  <g id="header_bg">
    <path class="cls-8" d="M942.37,234.15c-66.3-6.98-151.88-11.46-319.38,2.75-184.54,15.66-338.45,49.86-622.99,34.29V0h942.37v234.15Z"/>
    <g>
      <g>
        <path class="cls-2" d="M811.87,142.75c0-.77.12-2-.74-2.25v-.05h4.12c3.84,0,6.22,2.09,6.22,5.43s-2.54,5.63-6.31,5.63h-4.04v-.05c.84-.57.74-1.38.74-2.37v-6.34ZM813.59,150.18c.4.08.81.12,1.23.12,2.51,0,4.74-1.31,4.74-4.22s-1.65-4.42-4.46-4.42c-.5,0-1.01.07-1.51.18v8.34Z"/>
        <path class="cls-2" d="M824.78,147.36l-.87,2.37c-.35.94-.47,1.43.34,1.73v.05h-3.1v-.05c.98-.49,1.26-1.43,1.63-2.39l2.81-7.01c.24-.61.56-1.31-.25-1.56v-.05h2.66l3.5,8.63c.39.96.69,1.9,1.65,2.39v.05h-3.45v-.05c.82-.37.69-.56.24-1.73l-.91-2.37h-4.24ZM826.89,141.87l-1.67,4.24h3.31l-1.65-4.24Z"/>
        <path class="cls-2" d="M838.82,150.3c1.14.07,2.14-.32,2.98-1.03h.05l-.87,2.24h-6.91v-.05c.86-.3.76-1.55.76-2.3v-6.34c0-.77.1-2-.76-2.32v-.05h3.21v.05c-.86.32-.74,1.56-.74,2.32v7.33l2.29.15Z"/>
        <path class="cls-2" d="M846.08,147.36l-.87,2.37c-.35.94-.47,1.43.34,1.73v.05h-3.09v-.05c.98-.49,1.26-1.43,1.63-2.39l2.81-7.01c.24-.61.56-1.31-.25-1.56v-.05h2.66l3.5,8.63c.39.96.69,1.9,1.65,2.39v.05h-3.45v-.05c.82-.37.69-.56.24-1.73l-.91-2.37h-4.24ZM848.19,141.87l-1.67,4.24h3.31l-1.65-4.24Z"/>
        <path class="cls-2" d="M859.31,140.44c2.25,0,3.48,1.18,3.48,2.71s-1.29,2.64-2.67,2.96l2.42,3.04c.71.87,1.77,1.75,2.72,2.35h-1.55c-.89,0-1.45-.22-1.95-.84l-2.05-2.54-1.55-2.37c1.35-.2,2.91-.82,2.91-2.41,0-1.21-1.04-1.92-2.17-1.87-.39.02-.76.07-1.14.13v7.54c0,.77-.1,2,.76,2.3v.05h-3.21v-.05c.86-.3.74-1.55.74-2.3v-6.34c0-.77.12-2-.74-2.32v-.05h4Z"/>
        <path class="cls-2" d="M868.05,149.32c0,.94-.02,1.62.87,2.14v.05h-2.98v-.05c.89-.52.89-1.19.89-2.14v-6.71c0-.94,0-1.62-.88-2.12v-.05h2.46v.02c.07.2.13.29.25.42l.24.34,6.16,7.77v-6.37c0-.94.02-1.62-.88-2.12v-.05h2.96v.05c-.87.5-.87,1.18-.87,2.12v9.44c-1.19-.4-1.72-.96-2.46-1.92l-5.77-7.32v6.51Z"/>
        <path class="cls-2" d="M881.09,147.36l-.87,2.37c-.35.94-.47,1.43.34,1.73v.05h-3.09v-.05c.98-.49,1.26-1.43,1.63-2.39l2.81-7.01c.24-.61.56-1.31-.25-1.56v-.05h2.66l3.5,8.63c.39.96.69,1.9,1.65,2.39v.05h-3.45v-.05c.82-.37.69-.56.24-1.73l-.91-2.37h-4.24ZM883.19,141.87l-1.66,4.24h3.31l-1.65-4.24Z"/>
      </g>
      <g>
        <path class="cls-2" d="M800.93,130.71v3.04c0,.76-.1,1.98.74,2.3v.05h-3.2v-.05c.84-.32.74-1.55.74-2.3v-6.36c0-.76.12-1.98-.74-2.3v-.05h3.2v.05c-.84.32-.74,1.55-.74,2.32v2.09h6.07v-2.09c0-.77.12-2-.74-2.32v-.05h3.21v.05c-.86.32-.76,1.55-.76,2.3v6.36c0,.76-.1,1.98.76,2.3v.05h-3.21v-.05c.86-.32.74-1.55.74-2.3v-3.04h-6.07Z"/>
        <path class="cls-2" d="M822.97,130.46c0,3.43-2.84,5.92-6.19,5.92s-6.14-2.39-6.14-5.84c0-3.2,2.78-5.87,6.31-5.79,3.53-.02,6.02,2.67,6.02,5.7ZM812.56,130.39c0,2.36,1.67,4.78,4.31,4.78s4.19-1.87,4.19-4.37-1.56-4.83-4.22-4.83-4.27,1.88-4.27,4.42ZM815.23,124.03c-.55,0-1.01-.52-1.01-1.08,0-.61.49-1.04,1.09-1.04.56,0,.98.54.98,1.08,0,.61-.45,1.04-1.06,1.04ZM818.33,124.03c-.57,0-1.01-.54-1.01-1.08,0-.61.49-1.04,1.08-1.04s.99.52.99,1.06c0,.62-.45,1.06-1.06,1.06Z"/>
        <path class="cls-2" d="M833.76,126.99h-.05c-.69-.77-1.97-1.01-2.99-1.01-2.62,0-4.63,1.72-4.63,4.42s2.15,4.76,4.81,4.76c.77,0,1.58-.1,2.34-.32v-2.42c0-.77-.02-1.6-.77-1.9v-.05h2.57v.05c-.08.2-.08.47-.08.72v3.87c0,.25-.02.52.08.76-1.35.25-2.66.5-4.02.5-4.31,0-6.85-2.36-6.85-5.74,0-3.62,2.88-5.87,6.95-5.87.89,0,1.77.1,2.64.29v1.93Z"/>
        <path class="cls-2" d="M843.71,127.04c-.66-.67-1.7-1.06-2.64-1.06s-2.17.37-2.17,1.53c0,2.3,5.79,2.27,5.79,5.38,0,1.8-1.88,3.48-4.51,3.48-1.03,0-2.05-.15-3.01-.5l-.49-2.1c.99.86,2.37,1.4,3.68,1.4.96,0,2.41-.57,2.41-1.75,0-2.62-5.79-2.15-5.79-5.72,0-2.12,2.17-2.93,4.22-2.93.84,0,1.7.12,2.51.37v1.9Z"/>
        <path class="cls-2" d="M846.9,127.39c0-.76.1-1.98-.76-2.3v-.05h3.23v.05c-.86.3-.76,1.55-.76,2.3v6.34c0,.77-.1,2,.76,2.32v.05h-3.23v-.05c.86-.32.76-1.56.76-2.32v-6.34ZM851.03,127.43c.56-.79,1.56-1.83.44-2.34v-.05h3.03v.02l-3.87,4.96,3.4,4.46c.52.69,1.16,1.16,2.02,1.58v.05h-1.58c-.82,0-1.6-.32-1.9-.72l-3.73-5.03,2.2-2.93Z"/>
        <path class="cls-2" d="M868.21,130.46c0,3.43-2.84,5.92-6.19,5.92s-6.14-2.39-6.14-5.84c0-3.2,2.77-5.87,6.31-5.79,3.53-.02,6.02,2.67,6.02,5.7ZM857.8,130.39c0,2.36,1.67,4.78,4.31,4.78s4.19-1.87,4.19-4.37-1.56-4.83-4.22-4.83-4.27,1.88-4.27,4.42Z"/>
        <path class="cls-2" d="M874.29,134.9c1.14.07,2.14-.32,2.98-1.03h.05l-.87,2.24h-6.91v-.05c.86-.3.76-1.55.76-2.3v-6.34c0-.77.1-2-.76-2.32v-.05h3.21v.05c-.86.32-.74,1.56-.74,2.32v7.33l2.29.15Z"/>
        <path class="cls-2" d="M881.55,131.95l-.87,2.37c-.35.94-.47,1.43.34,1.73v.05h-3.09v-.05c.98-.49,1.26-1.43,1.63-2.39l2.81-7.01c.24-.61.56-1.31-.25-1.56v-.05h2.66l3.5,8.63c.39.96.69,1.9,1.65,2.39v.05h-3.45v-.05c.82-.37.69-.55.24-1.73l-.91-2.37h-4.24ZM883.65,126.47l-1.66,4.24h3.31l-1.65-4.24Z"/>
        <path class="cls-2" d="M892.72,133.92c0,.94-.02,1.62.88,2.14v.05h-2.98v-.05c.89-.52.89-1.19.89-2.14v-6.71c0-.94,0-1.62-.87-2.12v-.05h2.46v.02c.07.2.13.29.25.42l.24.34,6.16,7.77v-6.37c0-.94.02-1.62-.87-2.12v-.05h2.96v.05c-.87.5-.87,1.18-.87,2.12v9.44c-1.19-.4-1.71-.96-2.46-1.92l-5.77-7.32v6.51Z"/>
      </g>
      <path class="cls-1" d="M845.48,50.29c-.2-.34-.68-.68-1.13-.88-2.95,3.71-5.04,7.95-6.4,12.41-7.82-.32-14.86,1.86-21.01,5.86,2.28,6.67,7.37,12.9,13.53,17.1-2.57,6.67-2.92,14.75-.84,21.75,7.76-.4,14.61-2.99,20.61-7.62,6.26,4.49,11.53,6.95,20.52,7.53,1.96-6.95,1.96-14.07-.89-21.75,6.4-3.99,11.89-11.46,13.53-17.2-5.86-3.84-12.91-6.07-21.06-5.82-1.55-5.03-3.21-8.64-6.35-12.27-.44.27-.75.55-1.03.98,3.11,3.86,4.98,8.25,6.3,12.85,7.56-.48,14.47,1.23,20.42,4.94-2.49,6.3-7.59,12.2-13.58,15.98,2.61,6.06,3.37,14.02,1.62,20.72-7.38-.55-13.84-3.27-19.53-7.87-5.63,4.68-12.09,7.38-19.44,7.97-1.99-8.06-.76-14.88,1.48-20.87-6.12-3.71-10.85-9.33-13.53-15.81,5.88-3.61,12.4-5.49,20.37-5.01,1.5-5.12,3.63-9.36,6.4-13h0ZM850.32,55.2c-2.94,3.76-5.07,9.31-5.37,15.96-3.92-1.33-10.81-2.15-16.68.15,3.2,4.61,8.36,8.01,13.48,9.77-3.19,4.51-5.07,9.77-5.11,15.9,5.49-1.57,10.46-5.31,13.63-9.69,3.3,4.37,8.38,8.1,13.68,9.63.01-5.92-1.8-11.21-5.12-15.83,5.17-1.83,10.36-5.16,13.53-9.92-5.13-1.87-11.14-1.87-16.78-.15.05-5.19-1.66-10.98-5.26-15.82ZM850.15,45.61c2.32-1.71,4.65-3.41,7.23-4.5,4.26,3.93,7.56,8.91,9.74,14.07,9.05.9,17.18,4.12,24.11,10.02-2.04,8.41-6.77,16.27-13.63,22.14,2.08,8.31,1.27,18.23-1.97,25.75-9.42.73-17.95-1.58-25.44-5.91-7.49,4.37-16,6.73-25.44,6.01-3.36-7.54-4.22-17.42-2.12-25.85-6.97-6.02-11.56-13.63-13.58-21.99,6.94-5.88,14.99-9.03,24.01-9.92,1.83-4.98,6.24-11.12,9.94-14.32,2.55,1.09,4.88,2.69,7.13,4.5h0Z"/>
    </g>
  </g>
  <g id="rubrik">
    <path class="cls-2" d="M361.83,100.34l-2.13,6.63h-2.11l-2.16-6.63h1.93l1.31,5.24,1.34-5.24h1.83ZM367.93,104.19h-4.14c.06.6.22,1.03.49,1.28.27.25.63.38,1.09.38.28,0,.55-.05.8-.14.25-.09.52-.24.81-.44l.74,1c-.74.6-1.58.9-2.51.9-1.04,0-1.84-.31-2.4-.94-.56-.63-.84-1.47-.84-2.54,0-.68.12-1.28.36-1.82.24-.54.58-.96,1.04-1.27s.99-.46,1.62-.46c.94,0,1.68.3,2.2.89.53.59.79,1.42.79,2.48,0,.08-.01.31-.04.69ZM366.21,103c0-1.1-.4-1.65-1.19-1.65-.37,0-.65.14-.86.41-.2.27-.33.71-.37,1.32h2.41v-.08ZM373.12,100.25l-.3,1.71c-.23-.06-.43-.09-.59-.09-.39,0-.7.14-.91.41-.22.27-.39.69-.51,1.25v3.43h-1.78v-6.63h1.54l.16,1.29c.16-.47.39-.83.69-1.09.3-.26.65-.39,1.03-.39.2,0,.42.03.66.1ZM375.55,97.5v9.47h-1.78v-9.27l1.78-.2ZM379.58,100.34l-2.11,2.91,2.3,3.72h-2.01l-2.14-3.63,2.13-3h1.84ZM384.87,100.94l-.68,1.01c-.56-.35-1.11-.53-1.65-.53-.29,0-.52.05-.68.16-.16.11-.24.25-.24.44,0,.13.04.25.11.34.07.09.2.18.4.26.2.08.49.18.88.3.7.19,1.22.45,1.56.77.34.32.51.76.51,1.32,0,.44-.13.83-.38,1.15s-.6.57-1.03.74c-.43.17-.92.26-1.45.26s-1.07-.09-1.53-.26c-.46-.17-.85-.41-1.18-.71l.88-.98c.56.43,1.15.65,1.78.65.33,0,.6-.06.79-.19s.29-.31.29-.53c0-.18-.04-.31-.11-.41-.07-.1-.21-.19-.41-.28-.2-.09-.51-.19-.94-.31-.67-.18-1.16-.44-1.48-.78-.32-.34-.48-.76-.48-1.26,0-.38.11-.71.33-1.01.22-.3.52-.54.92-.71.4-.17.86-.26,1.38-.26.93,0,1.73.27,2.4.8ZM391.09,105.7c.07.12.2.21.38.27l-.38,1.18c-.39-.03-.71-.13-.96-.28-.25-.15-.44-.38-.57-.7-.43.67-1.1,1-1.99,1-.66,0-1.18-.19-1.57-.57-.39-.38-.58-.87-.58-1.48,0-.73.26-1.28.79-1.66.53-.38,1.28-.58,2.26-.58h.76v-.33c0-.41-.09-.69-.28-.85-.18-.16-.49-.24-.91-.24-.47,0-1.05.12-1.75.35l-.4-1.19c.83-.33,1.64-.49,2.45-.49.9,0,1.56.19,1.99.58.43.39.64.97.64,1.73v2.68c0,.26.04.45.11.57ZM389.24,105.15v-1.26h-.59c-.96,0-1.44.36-1.44,1.08,0,.29.07.52.22.68.15.16.36.24.63.24.5,0,.89-.25,1.18-.74ZM400.97,100.67c.32.36.48.85.48,1.46v4.83h-1.78v-4.53c0-.65-.22-.98-.65-.98-.23,0-.44.07-.61.22s-.35.38-.54.7v4.58h-1.78v-4.53c0-.65-.22-.98-.65-.98-.23,0-.44.08-.61.23-.18.15-.35.39-.53.69v4.58h-1.78v-6.63h1.54l.14.83c.25-.33.53-.59.84-.76.31-.18.67-.26,1.08-.26.38,0,.7.09.98.28.28.19.48.45.6.79.27-.36.57-.63.89-.81.32-.18.69-.27,1.09-.27.53,0,.95.18,1.27.54ZM407.97,100.67c.33.35.49.84.49,1.47v4.83h-1.78v-4.53c0-.36-.06-.61-.19-.76-.13-.15-.3-.22-.54-.22-.47,0-.89.3-1.28.91v4.59h-1.78v-9.27l1.78-.19v3.58c.27-.32.56-.55.87-.71.31-.16.67-.24,1.06-.24.58,0,1.03.18,1.36.53ZM415.5,104.19h-4.14c.06.6.22,1.03.49,1.28.27.25.63.38,1.09.38.28,0,.55-.05.8-.14.25-.09.52-.24.81-.44l.74,1c-.74.6-1.58.9-2.51.9-1.04,0-1.84-.31-2.4-.94-.56-.63-.84-1.47-.84-2.54,0-.68.12-1.28.36-1.82.24-.54.58-.96,1.04-1.27s.99-.46,1.62-.46c.94,0,1.68.3,2.2.89.53.59.79,1.42.79,2.48,0,.08-.01.31-.04.69ZM413.77,103c0-1.1-.4-1.65-1.19-1.65-.37,0-.65.14-.86.41-.2.27-.33.71-.37,1.32h2.41v-.08ZM420.56,106.66c-.24.17-.52.29-.82.38s-.61.13-.91.13c-.68,0-1.2-.2-1.55-.59-.35-.38-.53-.95-.53-1.69v-3.3h-.99v-1.25h.99v-1.45l1.78-.21v1.66h1.53l-.18,1.25h-1.35v3.27c0,.32.05.55.16.69.11.14.28.21.5.21s.48-.07.75-.22l.61,1.13ZM360.7,111.92c.39.17.69.41.9.71.21.3.31.64.31,1.01,0,.48-.15.91-.44,1.28-.29.37-.71.73-1.25,1.07l1.83,1.7c.27-.57.48-1.19.63-1.88l1.51.45c-.31.92-.69,1.71-1.14,2.36l1.49,1.33-1.48.76-1.04-1c-.75.67-1.66,1-2.74,1-.59,0-1.12-.1-1.58-.3-.46-.2-.81-.48-1.07-.84-.25-.36-.38-.79-.38-1.27,0-.51.14-.95.41-1.33.28-.38.71-.75,1.29-1.13-.44-.43-.75-.79-.93-1.09-.18-.3-.27-.65-.27-1.04s.1-.72.29-1.03c.19-.31.48-.56.87-.74.39-.19.86-.28,1.41-.28s.98.09,1.38.26ZM358.32,117.47c-.14.23-.21.48-.21.75,0,.38.13.67.4.89s.62.33,1.06.33c.58,0,1.09-.19,1.54-.58l-2.14-2.04c-.3.21-.52.43-.66.65ZM358.71,113.08c-.15.16-.23.37-.23.63,0,.23.06.45.18.64.12.2.32.43.6.71.33-.21.57-.42.73-.63.16-.21.24-.45.24-.72s-.08-.48-.23-.63c-.15-.15-.36-.23-.63-.23s-.49.08-.64.24ZM376.89,117.74h-4.14c.06.6.22,1.03.49,1.28.27.25.63.38,1.09.38.28,0,.55-.05.8-.14.25-.09.52-.24.81-.44l.74,1c-.74.6-1.58.9-2.51.9-1.04,0-1.84-.31-2.4-.94-.56-.63-.84-1.47-.84-2.54,0-.68.12-1.28.36-1.82.24-.54.58-.96,1.04-1.27s.99-.46,1.62-.46c.94,0,1.68.3,2.2.89.53.59.79,1.42.79,2.48,0,.08-.01.31-.04.69ZM375.16,116.55c0-1.1-.4-1.65-1.19-1.65-.37,0-.65.14-.86.41-.2.27-.33.71-.37,1.32h2.41v-.08ZM379.97,111.05v9.47h-1.78v-9.27l1.78-.2ZM384,113.89l-2.11,2.91,2.3,3.72h-2.01l-2.14-3.63,2.13-3h1.84ZM389.91,114.62c.56.62.84,1.48.84,2.58,0,.7-.13,1.32-.38,1.85-.25.53-.62.94-1.1,1.23s-1.04.44-1.7.44c-.99,0-1.77-.31-2.33-.93-.56-.62-.84-1.48-.84-2.58,0-.7.13-1.32.38-1.85.25-.53.62-.94,1.1-1.23.48-.29,1.05-.44,1.71-.44.99,0,1.77.31,2.33.93ZM386.58,115.55c-.22.35-.33.91-.33,1.66s.11,1.3.33,1.66c.22.35.55.53.99.53s.77-.18.99-.53c.22-.35.33-.91.33-1.66s-.11-1.3-.33-1.66c-.22-.35-.55-.53-.99-.53s-.79.18-1.01.53ZM397.14,114.22c.33.35.49.84.49,1.47v4.83h-1.78v-4.53c0-.36-.06-.61-.18-.76-.12-.15-.3-.22-.54-.22s-.48.08-.68.23c-.2.15-.4.39-.59.69v4.58h-1.78v-6.63h1.54l.14.84c.27-.34.58-.6.91-.78s.7-.26,1.12-.26c.58,0,1.04.18,1.36.53ZM404.41,114.62c.56.62.84,1.48.84,2.58,0,.7-.13,1.32-.38,1.85-.25.53-.62.94-1.1,1.23s-1.04.44-1.7.44c-.99,0-1.77-.31-2.33-.93-.56-.62-.84-1.48-.84-2.58,0-.7.13-1.32.38-1.85.25-.53.62-.94,1.1-1.23.48-.29,1.05-.44,1.71-.44.99,0,1.77.31,2.33.93ZM401.08,115.55c-.22.35-.33.91-.33,1.66s.11,1.3.33,1.66c.22.35.55.53.99.53s.77-.18.99-.53c.22-.35.33-.91.33-1.66s-.11-1.3-.33-1.66c-.22-.35-.55-.53-.99-.53s-.79.18-1.01.53ZM415.01,114.23c.32.36.48.85.48,1.46v4.83h-1.78v-4.53c0-.65-.22-.98-.65-.98-.23,0-.44.07-.61.22s-.35.38-.54.7v4.58h-1.78v-4.53c0-.65-.22-.98-.65-.98-.23,0-.44.08-.61.23-.18.15-.35.39-.53.69v4.58h-1.78v-6.63h1.54l.14.83c.25-.33.53-.59.84-.76.31-.18.67-.26,1.08-.26.38,0,.7.09.98.28.28.19.48.45.6.79.27-.36.57-.63.89-.81.32-.18.69-.27,1.09-.27.53,0,.95.18,1.27.54ZM418.82,110.77c.2.2.31.44.31.74s-.1.55-.31.74c-.2.2-.47.29-.78.29s-.58-.1-.78-.29-.3-.44-.3-.74.1-.55.3-.74.46-.29.78-.29.58.1.78.29ZM418.94,113.89v6.63h-1.78v-6.63h1.78Z"/>
    <rect id="avskiljare" class="cls-6" x="334.49" y="109.5" width="23" height="2.71" transform="translate(456.85 -235.14) rotate(90)"/>
    <path id="underrubrik" class="cls-2" d="M57.99,122.05h-5.19l-.23-2.11c-1.25,1.81-3.03,2.71-5.33,2.71-1.65,0-2.9-.5-3.74-1.49-.84-.99-1.26-2.37-1.26-4.14v-12.83h5.96v12.06c0,.76.12,1.29.35,1.59.23.3.59.45,1.06.45.42,0,.84-.15,1.26-.45.41-.3.8-.74,1.16-1.32v-12.33h5.96v17.86ZM72.87,121.18c-.69.49-1.5.86-2.41,1.11-.92.25-1.81.37-2.68.37-4.13,0-6.2-2.28-6.2-6.83v-7.54h-2.31v-4.09h2.31v-3.79l5.96-.7v4.49h4.05l-.6,4.09h-3.45v7.47c0,.8.13,1.37.39,1.71.26.33.64.5,1.16.5.63,0,1.23-.17,1.81-.5l1.98,3.72ZM79.15,95.51c.64.63.95,1.41.95,2.35s-.32,1.72-.95,2.35c-.64.63-1.46.94-2.46.94s-1.83-.31-2.46-.94c-.64-.63-.95-1.41-.95-2.35s.32-1.72.95-2.35c.64-.63,1.46-.94,2.46-.94s1.83.31,2.46.94ZM79.67,104.19v17.86h-5.96v-17.86h5.96ZM89.92,101.39c-.31.35-.47.94-.47,1.79v1.01h4.19l-.67,4.09h-3.52v13.77h-5.96v-13.77h-2.55v-4.09h2.55v-1.27c0-1.85.62-3.38,1.86-4.57,1.24-1.19,3.02-1.79,5.34-1.79.92,0,1.82.11,2.71.32.89.21,1.68.5,2.35.85l-1.61,3.82c-.87-.45-1.76-.67-2.68-.67-.71,0-1.23.17-1.54.52ZM106.44,103.96l-.97,5.76c-.58-.18-1.12-.27-1.61-.27-1,0-1.77.34-2.29,1.02s-.93,1.71-1.22,3.1v8.48h-5.96v-17.86h5.19l.54,3.38c.36-1.18.95-2.13,1.79-2.85.84-.71,1.75-1.07,2.73-1.07.58,0,1.18.1,1.81.3ZM121.36,117.99c.17.31.46.55.89.7l-1.21,3.85c-1.14-.09-2.07-.32-2.8-.7-.73-.38-1.31-.98-1.76-1.81-1.14,1.74-2.94,2.61-5.39,2.61-1.76,0-3.18-.52-4.24-1.56-1.06-1.04-1.59-2.38-1.59-4.04,0-1.97.73-3.47,2.18-4.52,1.45-1.05,3.55-1.57,6.3-1.57h1.54v-.6c0-.96-.2-1.61-.6-1.96-.4-.35-1.13-.52-2.18-.52-.56,0-1.26.08-2.09.25-.84.17-1.69.4-2.56.69l-1.31-3.85c1.07-.45,2.22-.79,3.45-1.02,1.23-.23,2.37-.35,3.42-.35,2.68,0,4.63.53,5.86,1.59,1.23,1.06,1.84,2.69,1.84,4.87v6.5c0,.65.08,1.13.25,1.44ZM117.33,94.02c.89.9,1.34,2.01,1.34,3.3,0,.83-.2,1.6-.6,2.31-.4.72-.97,1.28-1.71,1.71-.74.42-1.61.64-2.61.64s-1.84-.21-2.58-.64c-.74-.42-1.31-.99-1.71-1.71-.4-.71-.6-1.48-.6-2.31,0-1.29.45-2.4,1.34-3.3.89-.9,2.08-1.36,3.55-1.36s2.69.45,3.58,1.36ZM114.26,118.08c.41-.26.75-.61,1.02-1.06v-2.88h-1c-1.07,0-1.87.2-2.38.59-.51.39-.77.98-.77,1.76,0,.6.16,1.08.47,1.44.31.36.75.54,1.31.54.49,0,.94-.13,1.36-.39ZM112.72,96.12c-.26.27-.39.67-.39,1.21s.13.91.39,1.19c.26.28.6.42,1.02.42s.77-.14,1.04-.42c.27-.28.4-.67.4-1.19s-.13-.94-.39-1.21c-.26-.27-.61-.4-1.06-.4s-.77.13-1.02.4ZM138.9,104.99c.87.94,1.31,2.26,1.31,3.95v13.1h-5.96v-12.03c0-.78-.11-1.32-.34-1.62s-.56-.45-1-.45c-.94,0-1.83.68-2.68,2.04v12.06h-5.96v-17.86h5.19l.44,2.01c.8-.89,1.64-1.55,2.51-1.98.87-.42,1.84-.64,2.91-.64,1.52,0,2.71.47,3.58,1.41ZM162.08,121.18c-.69.49-1.5.86-2.41,1.11-.92.25-1.81.37-2.68.37-4.13,0-6.2-2.28-6.2-6.83v-7.54h-2.31v-4.09h2.31v-3.79l5.96-.7v4.49h4.05l-.6,4.09h-3.45v7.47c0,.8.13,1.37.39,1.71.26.33.64.5,1.16.5.63,0,1.23-.17,1.81-.5l1.98,3.72ZM168.36,95.51c.64.63.95,1.41.95,2.35s-.32,1.72-.95,2.35c-.64.63-1.46.94-2.46.94s-1.83-.31-2.46-.94c-.64-.63-.95-1.41-.95-2.35s.32-1.72.95-2.35c.64-.63,1.46-.94,2.46-.94s1.83.31,2.46.94ZM168.88,104.19v17.86h-5.96v-17.86h5.96ZM188.51,97.15v24.89h-5.29l-.23-1.98c-.54.76-1.22,1.38-2.06,1.86s-1.84.72-3,.72c-2.23,0-3.92-.85-5.06-2.55-1.14-1.7-1.71-4.04-1.71-7.04,0-1.83.31-3.47.92-4.91.61-1.44,1.48-2.56,2.6-3.37,1.12-.8,2.4-1.21,3.85-1.21,1.61,0,2.95.51,4.02,1.54v-8.58l5.96.6ZM182.55,116.59v-7.47c-.38-.42-.75-.74-1.11-.94-.36-.2-.77-.3-1.24-.3-.89,0-1.6.42-2.13,1.26-.53.84-.79,2.16-.79,3.97,0,2.01.22,3.39.67,4.14s1.08,1.12,1.91,1.12c1.07,0,1.96-.59,2.68-1.78ZM207.17,106.08c1.12,1.66,1.68,3.99,1.68,6.99,0,1.83-.29,3.47-.87,4.92-.58,1.45-1.41,2.59-2.5,3.42-1.08.83-2.33,1.24-3.74,1.24-1.76,0-3.18-.6-4.25-1.81v8.11l-5.96.6v-25.36h5.29l.27,1.88c.69-.87,1.48-1.5,2.36-1.89.88-.39,1.78-.59,2.7-.59,2.23,0,3.91.83,5.03,2.5ZM202.69,113.14c0-2.03-.21-3.41-.62-4.14-.41-.73-1.03-1.09-1.86-1.09-1.07,0-1.98.63-2.71,1.88v7.17c.33.49.69.85,1.06,1.07.37.22.8.34,1.29.34,1.9,0,2.85-1.74,2.85-5.23ZM212.3,121.24c-.92-.94-1.37-2.29-1.37-4.05v-20.03l5.96-.6v20.44c0,.65.29.97.87.97.25,0,.5-.04.77-.13l1.11,4.22c-.92.4-2.07.6-3.45.6-1.68,0-2.97-.47-3.89-1.41ZM235.53,117.99c.17.31.46.55.89.7l-1.21,3.85c-1.14-.09-2.07-.32-2.8-.7-.73-.38-1.31-.98-1.76-1.81-1.14,1.74-2.94,2.61-5.39,2.61-1.76,0-3.18-.52-4.24-1.56-1.06-1.04-1.59-2.38-1.59-4.04,0-1.97.73-3.47,2.18-4.52,1.45-1.05,3.55-1.57,6.3-1.57h1.54v-.6c0-.96-.2-1.61-.6-1.96-.4-.35-1.13-.52-2.18-.52-.56,0-1.26.08-2.09.25-.84.17-1.69.4-2.56.69l-1.31-3.85c1.07-.45,2.22-.79,3.45-1.02,1.23-.23,2.37-.35,3.42-.35,2.68,0,4.63.53,5.86,1.59,1.23,1.06,1.84,2.69,1.84,4.87v6.5c0,.65.08,1.13.25,1.44ZM228.43,118.08c.41-.26.75-.61,1.02-1.06v-2.88h-1c-1.07,0-1.87.2-2.38.59-.51.39-.77.98-.77,1.76,0,.6.16,1.08.47,1.44.31.36.75.54,1.31.54.49,0,.94-.13,1.36-.39ZM253.07,104.99c.87.94,1.31,2.26,1.31,3.95v13.1h-5.96v-12.03c0-.78-.11-1.32-.34-1.62s-.56-.45-1-.45c-.94,0-1.83.68-2.68,2.04v12.06h-5.96v-17.86h5.19l.44,2.01c.8-.89,1.64-1.55,2.51-1.98.87-.42,1.84-.64,2.91-.64,1.52,0,2.71.47,3.58,1.41ZM275.13,99.72c1.22.59,2.14,1.38,2.76,2.38.63.99.94,2.09.94,3.3s-.22,2.29-.67,3.32c-.45,1.03-1.28,2.23-2.5,3.62-1.22,1.39-3.01,3.12-5.38,5.19h9.05l-.64,4.52h-15.18v-4.15c2.66-2.57,4.61-4.53,5.86-5.88,1.25-1.35,2.12-2.47,2.61-3.35.49-.88.74-1.76.74-2.63,0-.83-.23-1.48-.7-1.96-.47-.48-1.12-.72-1.94-.72-.78,0-1.48.18-2.09.55-.61.37-1.23.95-1.86,1.76l-3.45-2.78c.96-1.27,2.12-2.27,3.47-2.98s2.88-1.07,4.57-1.07,3.19.3,4.41.89ZM296.22,101.91c1.52,2.06,2.28,4.99,2.28,8.81s-.76,6.76-2.28,8.83c-1.52,2.07-3.71,3.1-6.57,3.1s-5.05-1.03-6.58-3.1c-1.53-2.07-2.29-5.01-2.29-8.83s.76-6.78,2.29-8.83c1.53-2.04,3.72-3.07,6.58-3.07s5.05,1.03,6.57,3.08ZM288.01,103.87c-.4.46-.69,1.23-.87,2.31-.18,1.08-.27,2.6-.27,4.54s.09,3.49.27,4.57c.18,1.08.47,1.85.87,2.31.4.46.95.69,1.64.69s1.23-.22,1.62-.65c.39-.44.68-1.19.85-2.28.18-1.08.27-2.63.27-4.64s-.09-3.56-.27-4.64c-.18-1.08-.46-1.84-.85-2.26-.39-.42-.93-.64-1.62-.64s-1.24.23-1.64.69ZM311.28,99.72c1.22.59,2.14,1.38,2.76,2.38.63.99.94,2.09.94,3.3s-.22,2.29-.67,3.32c-.45,1.03-1.28,2.23-2.5,3.62-1.22,1.39-3.01,3.12-5.38,5.19h9.05l-.64,4.52h-15.18v-4.15c2.66-2.57,4.61-4.53,5.86-5.88,1.25-1.35,2.12-2.47,2.61-3.35.49-.88.74-1.76.74-2.63,0-.83-.23-1.48-.7-1.96-.47-.48-1.12-.72-1.94-.72-.78,0-1.48.18-2.09.55-.61.37-1.23.95-1.86,1.76l-3.45-2.78c.96-1.27,2.12-2.27,3.47-2.98s2.88-1.07,4.57-1.07,3.19.3,4.41.89ZM331.21,107.57c.99.6,1.77,1.47,2.33,2.61s.84,2.5.84,4.09-.34,2.92-1.02,4.2c-.68,1.28-1.66,2.3-2.95,3.05-1.28.75-2.8,1.12-4.54,1.12-2.99,0-5.23-.97-6.72-2.9-1.49-1.93-2.23-4.61-2.23-8.02,0-2.57.42-4.82,1.26-6.77s2.03-3.45,3.58-4.52c1.55-1.07,3.38-1.61,5.48-1.61s3.82.5,5.29,1.51l-2.14,3.52c-.98-.58-1.99-.87-3.02-.87-1.16,0-2.11.47-2.85,1.41-.74.94-1.18,2.3-1.34,4.09,1.29-1.21,2.84-1.81,4.62-1.81,1.27,0,2.41.3,3.4.9ZM327.79,117.37c.41-.73.62-1.74.62-3.03s-.19-2.28-.57-2.83-.99-.82-1.84-.82c-.47,0-.95.12-1.44.35-.49.23-.95.58-1.37,1.02,0,1.59.08,2.84.25,3.77.17.93.45,1.6.84,2.01.39.41.93.62,1.62.62.85,0,1.48-.36,1.89-1.09Z"/>
    <path id="huvudrubrik" class="cls-2" d="M66.57,49.95l-8.54,32.24h-10.95l-8.95-32.24h9.05l5.52,25.98,5.1-25.98h8.77ZM88.75,72.22h-15.12c.22,1.89.75,3.18,1.6,3.87.85.7,2.06,1.04,3.64,1.04.93,0,1.85-.18,2.76-.53.91-.36,1.91-.9,2.99-1.65l3.34,4.55c-1.3,1.08-2.78,1.94-4.45,2.57-1.67.63-3.48.95-5.43.95-4.21,0-7.4-1.18-9.58-3.55-2.18-2.37-3.27-5.54-3.27-9.53,0-2.5.46-4.76,1.37-6.77.91-2.01,2.27-3.6,4.06-4.78,1.79-1.17,3.96-1.76,6.49-1.76,3.62,0,6.48,1.12,8.58,3.36,2.1,2.24,3.15,5.39,3.15,9.44,0,.19-.05,1.11-.14,2.78ZM80.77,67.11c-.03-1.64-.31-2.91-.83-3.8-.53-.9-1.41-1.35-2.64-1.35-1.14,0-2.01.4-2.6,1.21-.59.8-.96,2.21-1.11,4.22h7.19v-.28ZM108.47,57.14l-1.35,7.98c-.8-.25-1.55-.37-2.23-.37-1.39,0-2.45.47-3.18,1.42-.73.94-1.29,2.37-1.69,4.29v11.74h-8.26v-24.73h7.19l.74,4.69c.49-1.64,1.32-2.95,2.48-3.94,1.16-.99,2.42-1.48,3.78-1.48.8,0,1.64.14,2.5.42ZM118.35,46.89v35.3h-8.26v-34.47l8.26-.83ZM133.89,57.46l-7.01,10.86,7.52,13.87h-9.19l-6.68-13.5,7.1-11.23h8.26ZM150.01,57.46c1.62.56,3.01,1.31,4.15,2.27l-2.97,4.55c-1.98-1.24-3.97-1.86-5.98-1.86-.87,0-1.51.13-1.93.39-.42.26-.63.63-.63,1.09,0,.4.11.73.32.97.22.25.67.52,1.37.81.7.29,1.8.67,3.32,1.14,2.54.74,4.41,1.71,5.61,2.9,1.21,1.19,1.81,2.85,1.81,4.99,0,1.67-.49,3.13-1.46,4.38-.97,1.25-2.32,2.22-4.04,2.9-1.72.68-3.66,1.02-5.82,1.02s-4.08-.33-5.92-1c-1.84-.66-3.39-1.58-4.66-2.76l3.94-4.41c.96.74,1.99,1.33,3.08,1.76,1.1.43,2.2.65,3.32.65.99,0,1.76-.16,2.3-.49.54-.32.81-.81.81-1.46,0-.49-.12-.88-.35-1.16-.23-.28-.67-.55-1.32-.81-.65-.26-1.76-.63-3.34-1.09-4.79-1.42-7.19-4.04-7.19-7.84,0-1.45.42-2.78,1.25-3.97.84-1.19,2.03-2.13,3.6-2.81,1.56-.68,3.42-1.02,5.59-1.02,1.79,0,3.5.28,5.13.84ZM178.12,76.58c.23.43.64.76,1.23.97l-1.67,5.34c-1.58-.12-2.87-.45-3.87-.97-1.01-.53-1.82-1.36-2.44-2.5-1.58,2.41-4.07,3.62-7.47,3.62-2.44,0-4.4-.72-5.87-2.16-1.47-1.44-2.2-3.3-2.2-5.59,0-2.72,1-4.81,3.02-6.26,2.01-1.45,4.92-2.18,8.72-2.18h2.13v-.83c0-1.33-.28-2.23-.84-2.71-.56-.48-1.56-.72-3.02-.72-.77,0-1.74.12-2.9.35-1.16.23-2.34.55-3.55.95l-1.81-5.33c1.48-.62,3.08-1.09,4.78-1.42,1.7-.32,3.28-.49,4.73-.49,3.71,0,6.42.74,8.12,2.2,1.7,1.47,2.55,3.72,2.55,6.75v9c0,.9.12,1.56.35,1.99ZM168.29,76.69c.57-.35,1.04-.84,1.42-1.46v-3.99h-1.39c-1.48,0-2.58.27-3.29.81-.71.54-1.07,1.35-1.07,2.44,0,.84.22,1.5.65,1.99.43.5,1.04.74,1.81.74.68,0,1.31-.18,1.88-.53ZM214.98,58.6c1.17,1.31,1.76,3.13,1.76,5.45v18.14h-8.26v-16.65c0-1.92-.56-2.88-1.67-2.88s-2.2.94-3.15,2.83v16.7h-8.26v-16.65c0-1.92-.56-2.88-1.67-2.88s-2.2.94-3.16,2.83v16.7h-8.26v-24.73h7.19l.6,2.74c.96-1.21,2.02-2.1,3.18-2.69,1.16-.59,2.5-.88,4.01-.88,1.3,0,2.44.32,3.43.95.99.63,1.73,1.55,2.23,2.76,1.02-1.27,2.12-2.2,3.29-2.81s2.54-.9,4.08-.9c1.92,0,3.46.66,4.64,1.97ZM241.15,58.6c1.21,1.31,1.81,3.13,1.81,5.45v18.14h-8.26v-16.65c0-1.08-.16-1.83-.49-2.25s-.8-.63-1.42-.63c-1.27,0-2.49.94-3.67,2.83v16.7h-8.26v-34.47l8.26-.83v12.99c1.02-1.11,2.1-1.93,3.25-2.46,1.14-.53,2.41-.79,3.8-.79,2.1,0,3.76.66,4.96,1.97ZM269.35,72.22h-15.12c.22,1.89.75,3.18,1.6,3.87.85.7,2.06,1.04,3.64,1.04.93,0,1.85-.18,2.76-.53.91-.36,1.91-.9,2.99-1.65l3.34,4.55c-1.3,1.08-2.78,1.94-4.45,2.57-1.67.63-3.48.95-5.43.95-4.21,0-7.4-1.18-9.58-3.55-2.18-2.37-3.27-5.54-3.27-9.53,0-2.5.46-4.76,1.37-6.77.91-2.01,2.27-3.6,4.06-4.78,1.79-1.17,3.96-1.76,6.49-1.76,3.62,0,6.48,1.12,8.58,3.36,2.1,2.24,3.15,5.39,3.15,9.44,0,.19-.05,1.11-.14,2.78ZM261.37,67.11c-.03-1.64-.31-2.91-.83-3.8-.53-.9-1.41-1.35-2.64-1.35-1.14,0-2.01.4-2.6,1.21-.59.8-.96,2.21-1.11,4.22h7.19v-.28ZM288.79,80.98c-.96.68-2.07,1.19-3.34,1.53-1.27.34-2.5.51-3.71.51-5.72,0-8.58-3.15-8.58-9.46v-10.44h-3.2v-5.66h3.2v-5.24l8.26-.97v6.22h5.61l-.83,5.66h-4.78v10.35c0,1.11.18,1.9.53,2.37.35.46.89.7,1.6.7.87,0,1.7-.23,2.5-.7l2.74,5.15ZM304.58,57.46c1.62.56,3.01,1.31,4.15,2.27l-2.97,4.55c-1.98-1.24-3.97-1.86-5.98-1.86-.87,0-1.51.13-1.93.39-.42.26-.63.63-.63,1.09,0,.4.11.73.32.97.22.25.67.52,1.37.81.7.29,1.8.67,3.32,1.14,2.54.74,4.41,1.71,5.61,2.9,1.21,1.19,1.81,2.85,1.81,4.99,0,1.67-.49,3.13-1.46,4.38-.97,1.25-2.32,2.22-4.04,2.9-1.72.68-3.66,1.02-5.82,1.02s-4.08-.33-5.92-1c-1.84-.66-3.39-1.58-4.66-2.76l3.94-4.41c.96.74,1.99,1.33,3.08,1.76,1.1.43,2.2.65,3.32.65.99,0,1.76-.16,2.3-.49.54-.32.81-.81.81-1.46,0-.49-.12-.88-.35-1.16-.23-.28-.67-.55-1.32-.81-.65-.26-1.76-.63-3.34-1.09-4.79-1.42-7.19-4.04-7.19-7.84,0-1.45.42-2.78,1.25-3.97.84-1.19,2.03-2.13,3.6-2.81,1.56-.68,3.42-1.02,5.59-1.02,1.79,0,3.5.28,5.13.84ZM328.31,57.42c1.42.53,2.72,1.32,3.9,2.37l-3.48,4.82c-1.42-1.14-2.92-1.72-4.5-1.72s-2.66.55-3.43,1.65c-.77,1.1-1.16,2.92-1.16,5.45s.39,4.2,1.16,5.17c.77.97,1.89,1.46,3.34,1.46.77,0,1.48-.12,2.13-.37.65-.25,1.44-.66,2.37-1.25l3.57,5.06c-2.38,1.98-5.21,2.97-8.49,2.97-2.6,0-4.85-.54-6.75-1.62-1.9-1.08-3.36-2.61-4.38-4.57-1.02-1.96-1.53-4.23-1.53-6.8s.51-4.91,1.53-6.94c1.02-2.03,2.47-3.61,4.34-4.76,1.87-1.14,4.06-1.72,6.56-1.72,1.79,0,3.4.26,4.82.79ZM348.82,82.19c-1.02,3.31-2.73,5.84-5.13,7.59-2.4,1.75-5.56,2.7-9.49,2.85l-.88-5.71c2.35-.25,4.1-.72,5.24-1.42,1.14-.7,2.04-1.8,2.69-3.32h-2.83l-7.24-24.73h8.77l3.76,19.58,4.31-19.58h8.49l-7.7,24.73ZM366.26,46.89v35.3h-8.26v-34.47l8.26-.83ZM381.8,57.46l-7.01,10.86,7.52,13.87h-9.19l-6.68-13.5,7.1-11.23h8.26ZM405.32,72.22h-15.12c.22,1.89.75,3.18,1.6,3.87.85.7,2.06,1.04,3.64,1.04.93,0,1.85-.18,2.76-.53.91-.36,1.91-.9,2.99-1.65l3.34,4.55c-1.3,1.08-2.78,1.94-4.45,2.57-1.67.63-3.48.95-5.43.95-4.21,0-7.4-1.18-9.58-3.55-2.18-2.37-3.27-5.54-3.27-9.53,0-2.5.46-4.76,1.37-6.77.91-2.01,2.27-3.6,4.06-4.78,1.79-1.17,3.96-1.76,6.49-1.76,3.62,0,6.48,1.12,8.58,3.36,2.1,2.24,3.15,5.39,3.15,9.44,0,.19-.05,1.11-.14,2.78ZM397.34,67.11c-.03-1.64-.31-2.91-.83-3.8-.53-.9-1.41-1.35-2.64-1.35-1.14,0-2.01.4-2.6,1.21-.59.8-.96,2.21-1.11,4.22h7.19v-.28ZM410.01,81.08c-1.27-1.3-1.9-3.17-1.9-5.61v-27.74l8.26-.83v28.3c0,.9.4,1.35,1.21,1.35.34,0,.7-.06,1.07-.19l1.53,5.85c-1.27.56-2.86.83-4.78.83-2.32,0-4.11-.65-5.38-1.95Z"/>
  </g>
  <g id="symbol_beskrivningar">
    <g id="inlamning_beskrivning">
      <path id="inlamning_text" class="cls-2" d="M274.05,157.46v8.3h-1.76v-8.3h1.76ZM280.64,159.72c.31.34.47.81.47,1.41v4.63h-1.7v-4.34c0-.34-.06-.59-.17-.73-.12-.14-.29-.21-.52-.21s-.46.07-.65.22c-.2.15-.39.37-.57.67v4.39h-1.7v-6.36h1.48l.13.8c.26-.33.55-.58.87-.74.32-.17.67-.25,1.07-.25.56,0,1,.17,1.31.51ZM283.1,165.5c-.29-.3-.43-.73-.43-1.28v-7.36l1.7-.19v7.5c0,.28.12.42.35.42.13,0,.24-.02.34-.07l.35,1.21c-.33.14-.69.22-1.09.22-.52,0-.92-.15-1.21-.45ZM291.18,164.54c.07.12.19.2.36.26l-.36,1.13c-.38-.03-.68-.12-.92-.26-.24-.14-.42-.37-.55-.67-.42.64-1.05.96-1.91.96-.63,0-1.13-.18-1.51-.55-.37-.36-.56-.84-.56-1.42,0-.7.25-1.23.76-1.6.5-.37,1.23-.55,2.17-.55h.73v-.31c0-.39-.09-.66-.26-.82-.18-.15-.47-.23-.88-.23-.45,0-1.01.11-1.68.34l-.38-1.14c.79-.31,1.58-.47,2.35-.47.86,0,1.5.19,1.91.56.41.37.61.93.61,1.66v2.57c0,.25.04.43.11.55ZM287.88,156.52c.17.17.26.38.26.63s-.09.46-.26.63-.39.26-.64.26-.46-.09-.64-.26c-.18-.17-.26-.38-.26-.63s.09-.46.26-.63c.18-.17.39-.26.64-.26s.47.09.64.26ZM289.41,164.02v-1.21h-.56c-.92,0-1.38.34-1.38,1.03,0,.28.07.5.21.65.14.16.34.23.61.23.48,0,.86-.24,1.13-.71ZM290.6,156.52c.18.17.26.38.26.63s-.09.46-.26.63c-.18.17-.39.26-.65.26s-.46-.09-.63-.26-.26-.38-.26-.63.09-.46.26-.63c.17-.17.38-.26.63-.26s.47.09.65.26ZM300.87,159.73c.31.34.46.81.46,1.4v4.63h-1.71v-4.34c0-.62-.21-.94-.62-.94-.22,0-.42.07-.59.22s-.34.37-.52.67v4.39h-1.7v-4.34c0-.62-.21-.94-.62-.94-.22,0-.42.07-.59.22-.17.15-.34.37-.5.67v4.39h-1.7v-6.36h1.48l.13.79c.24-.32.51-.56.81-.73s.65-.25,1.04-.25c.36,0,.67.09.94.27.26.18.46.43.58.76.26-.34.55-.6.86-.77.31-.17.66-.26,1.05-.26.5,0,.91.17,1.22.52ZM307.82,159.72c.31.34.47.81.47,1.41v4.63h-1.7v-4.34c0-.34-.06-.59-.17-.73-.12-.14-.29-.21-.52-.21s-.46.07-.65.22c-.2.15-.39.37-.57.67v4.39h-1.7v-6.36h1.48l.13.8c.26-.33.55-.58.87-.74.32-.17.67-.25,1.07-.25.56,0,1,.17,1.31.51ZM311.49,156.41c.2.19.29.43.29.71s-.1.53-.29.71-.45.28-.75.28-.55-.09-.74-.28c-.19-.19-.29-.43-.29-.71s.1-.53.29-.71c.19-.19.44-.28.74-.28s.55.09.75.28ZM311.61,159.4v6.36h-1.7v-6.36h1.7ZM318.15,159.72c.31.34.47.81.47,1.41v4.63h-1.7v-4.34c0-.34-.06-.59-.17-.73-.12-.14-.29-.21-.52-.21s-.46.07-.65.22c-.2.15-.39.37-.57.67v4.39h-1.7v-6.36h1.48l.13.8c.26-.33.55-.58.87-.74.32-.17.67-.25,1.07-.25.56,0,1,.17,1.31.51ZM325.93,159.75c-.42.16-1.03.24-1.84.24.4.18.7.39.89.65.19.26.29.59.29.98s-.11.77-.32,1.1-.52.58-.91.76c-.4.18-.86.28-1.39.28-.28,0-.53-.03-.74-.08-.16.1-.24.24-.24.42,0,.13.05.23.15.31s.29.11.58.11h.97c.47,0,.89.08,1.24.23.36.16.63.37.83.65.2.28.29.59.29.94,0,.65-.28,1.15-.83,1.52-.56.36-1.36.55-2.41.55-.75,0-1.35-.08-1.78-.23-.44-.16-.74-.38-.92-.68-.18-.3-.26-.67-.26-1.12h1.52c0,.21.04.37.12.5.08.12.23.22.44.28.21.06.52.09.92.09.55,0,.94-.07,1.16-.2.22-.14.33-.33.33-.58,0-.22-.08-.4-.25-.52-.17-.12-.42-.18-.74-.18h-.94c-.63,0-1.1-.12-1.42-.35-.31-.24-.47-.53-.47-.89,0-.22.07-.44.2-.65s.31-.39.55-.53c-.39-.22-.68-.47-.86-.76-.18-.29-.27-.64-.27-1.05,0-.46.11-.87.34-1.22.23-.35.55-.62.96-.8s.88-.28,1.41-.28c.66.02,1.2-.04,1.62-.17.42-.13.88-.33,1.36-.6l.42,1.31ZM321.8,160.66c-.19.2-.28.48-.28.83s.09.64.28.85c.19.21.45.31.77.31s.6-.1.78-.3c.18-.2.26-.5.26-.89,0-.74-.35-1.12-1.06-1.12-.32,0-.57.1-.76.31ZM334.66,164.54c.07.12.19.2.36.26l-.36,1.13c-.38-.03-.68-.12-.92-.26-.24-.14-.42-.37-.55-.67-.42.64-1.05.96-1.91.96-.63,0-1.13-.18-1.51-.55s-.56-.84-.56-1.42c0-.7.25-1.23.76-1.6.5-.37,1.23-.55,2.17-.55h.73v-.31c0-.39-.09-.66-.26-.82-.18-.15-.47-.23-.88-.23-.45,0-1.01.11-1.68.34l-.38-1.14c.79-.31,1.58-.47,2.35-.47.86,0,1.5.19,1.91.56s.61.93.61,1.66v2.57c0,.25.04.43.11.55ZM332.88,164.02v-1.21h-.56c-.92,0-1.38.34-1.38,1.03,0,.28.07.5.21.65.14.16.34.23.61.23.48,0,.86-.24,1.13-.71ZM341.36,159.4l-2.04,6.36h-2.03l-2.08-6.36h1.85l1.26,5.03,1.28-5.03h1.75ZM350.38,159.4l-2.04,6.36h-2.03l-2.08-6.36h1.85l1.26,5.03,1.28-5.03h1.75ZM356.45,163.1h-3.97c.06.58.21.98.47,1.22.26.24.6.36,1.04.36.27,0,.53-.04.77-.13.24-.09.5-.23.78-.42l.71.96c-.71.58-1.52.86-2.41.86-1,0-1.77-.3-2.3-.9s-.8-1.41-.8-2.44c0-.65.11-1.23.34-1.75.23-.52.56-.92,1-1.22.44-.3.95-.44,1.55-.44.9,0,1.61.28,2.11.85.5.57.76,1.36.76,2.38,0,.08-.01.3-.04.66ZM354.8,161.96c0-1.06-.38-1.58-1.14-1.58-.35,0-.63.13-.82.39-.2.26-.31.68-.35,1.27h2.32v-.07ZM361.65,159.32l-.29,1.64c-.22-.06-.41-.08-.56-.08-.38,0-.67.13-.88.4-.21.26-.37.66-.49,1.2v3.29h-1.7v-6.36h1.48l.16,1.24c.15-.45.37-.8.67-1.04s.62-.37.99-.37c.19,0,.4.03.64.1ZM364.19,156.68v9.08h-1.7v-8.89l1.7-.19ZM368.06,159.4l-2.03,2.8,2.21,3.56h-1.93l-2.05-3.48,2.04-2.88h1.76ZM373.35,159.98l-.65.97c-.54-.34-1.06-.5-1.58-.5-.28,0-.5.05-.65.16-.15.1-.23.24-.23.42,0,.13.03.24.1.32.07.09.2.17.38.25.19.08.47.18.85.29.67.18,1.17.43,1.5.74.33.31.49.73.49,1.27,0,.42-.12.79-.37,1.1-.24.31-.57.55-.99.71-.42.16-.88.25-1.39.25s-1.02-.08-1.46-.25c-.44-.16-.82-.39-1.13-.68l.84-.94c.54.42,1.1.62,1.7.62.32,0,.57-.06.76-.19.19-.12.28-.29.28-.51,0-.17-.04-.3-.11-.4-.07-.1-.2-.19-.4-.27-.19-.08-.49-.18-.9-.29-.64-.18-1.11-.43-1.42-.75-.31-.32-.46-.73-.46-1.21,0-.36.1-.68.31-.97s.5-.51.88-.68c.38-.16.82-.25,1.33-.25.9,0,1.66.26,2.3.77ZM379.53,164.54c.07.12.19.2.36.26l-.36,1.13c-.38-.03-.68-.12-.92-.26-.24-.14-.42-.37-.55-.67-.42.64-1.05.96-1.91.96-.63,0-1.13-.18-1.51-.55s-.56-.84-.56-1.42c0-.7.25-1.23.76-1.6.5-.37,1.23-.55,2.17-.55h.73v-.31c0-.39-.09-.66-.26-.82-.18-.15-.47-.23-.88-.23-.45,0-1.01.11-1.68.34l-.38-1.14c.79-.31,1.58-.47,2.35-.47.86,0,1.5.19,1.91.56s.61.93.61,1.66v2.57c0,.25.04.43.11.55ZM377.75,164.02v-1.21h-.56c-.92,0-1.38.34-1.38,1.03,0,.28.07.5.21.65.14.16.34.23.61.23.48,0,.86-.24,1.13-.71ZM389.22,159.73c.31.34.46.81.46,1.4v4.63h-1.7v-4.34c0-.62-.21-.94-.62-.94-.22,0-.42.07-.59.22-.17.14-.34.37-.52.67v4.39h-1.7v-4.34c0-.62-.21-.94-.62-.94-.22,0-.42.07-.59.22-.17.15-.34.37-.5.67v4.39h-1.7v-6.36h1.48l.13.79c.24-.32.51-.56.81-.73s.65-.25,1.04-.25c.36,0,.67.09.94.27.26.18.46.43.58.76.26-.34.55-.6.86-.77s.66-.26,1.05-.26c.5,0,.91.17,1.22.52ZM396.15,159.72c.32.34.47.81.47,1.41v4.63h-1.7v-4.34c0-.34-.06-.59-.18-.73-.12-.14-.29-.21-.52-.21-.45,0-.86.29-1.22.88v4.4h-1.7v-8.89l1.7-.18v3.43c.26-.3.53-.53.83-.68.3-.15.64-.23,1.01-.23.55,0,.99.17,1.3.51ZM403.59,163.1h-3.97c.06.58.21.98.47,1.22.26.24.6.36,1.04.36.27,0,.53-.04.77-.13.24-.09.5-.23.78-.42l.71.96c-.71.58-1.52.86-2.41.86-1,0-1.77-.3-2.3-.9s-.8-1.41-.8-2.44c0-.65.11-1.23.34-1.75.23-.52.56-.92,1-1.22.44-.3.95-.44,1.55-.44.9,0,1.61.28,2.11.85.5.57.76,1.36.76,2.38,0,.08-.01.3-.04.66ZM401.93,161.96c0-1.06-.38-1.58-1.14-1.58-.35,0-.63.13-.82.39-.2.26-.31.68-.35,1.27h2.32v-.07ZM408.66,165.46c-.23.16-.49.28-.79.37-.29.08-.58.13-.87.13-.66,0-1.15-.2-1.49-.56-.34-.37-.5-.91-.5-1.62v-3.17h-.95v-1.2h.95v-1.39l1.7-.2v1.6h1.46l-.17,1.2h-1.3v3.13c0,.3.05.52.16.66.1.14.26.2.48.2s.46-.07.72-.22l.59,1.08ZM414.56,163.1h-3.97c.06.58.21.98.47,1.22.26.24.6.36,1.04.36.27,0,.53-.04.77-.13.24-.09.5-.23.78-.42l.71.96c-.71.58-1.52.86-2.41.86-1,0-1.77-.3-2.3-.9s-.8-1.41-.8-2.44c0-.65.11-1.23.34-1.75.23-.52.56-.92,1-1.22.44-.3.95-.44,1.55-.44.9,0,1.61.28,2.11.85.5.57.76,1.36.76,2.38,0,.08-.01.3-.04.66ZM412.9,161.96c0-1.06-.38-1.58-1.14-1.58-.35,0-.63.13-.82.39-.2.26-.31.68-.35,1.27h2.32v-.07ZM420.69,159.72c.31.34.47.81.47,1.41v4.63h-1.7v-4.34c0-.34-.06-.59-.17-.73-.12-.14-.29-.21-.52-.21s-.46.07-.65.22c-.2.15-.39.37-.57.67v4.39h-1.7v-6.36h1.48l.13.8c.26-.33.55-.58.87-.74.32-.17.67-.25,1.07-.25.56,0,1,.17,1.31.51Z"/>
      <g id="inlamning_symbol">
        <rect class="cls-7" x="248.8" y="156.37" width="12.76" height="12.76" transform="translate(-40.34 228.11) rotate(-45)"/>
        <path class="cls-2" d="M255.18,154.73l8.02,8.02-8.02,8.02-8.02-8.02,8.02-8.02M255.18,152.73l-10.02,10.02,10.02,10.02,10.02-10.02-10.02-10.02h0Z"/>
      </g>
    </g>
    <g id="oa_beskrivning">
      <path id="oa_text" class="cls-2" d="M149.48,157.87c.55.34.98.83,1.27,1.48.3.65.44,1.43.44,2.35s-.15,1.68-.44,2.33c-.3.65-.72,1.15-1.27,1.49-.55.34-1.21.52-1.97.52s-1.42-.17-1.97-.51c-.56-.34-.98-.84-1.28-1.49-.3-.65-.44-1.43-.44-2.35s.15-1.67.45-2.32c.3-.65.73-1.15,1.28-1.5.56-.35,1.21-.52,1.96-.52s1.42.17,1.97.51ZM146.14,159.4c-.31.48-.46,1.25-.46,2.3s.16,1.82.47,2.3.77.72,1.37.72,1.06-.24,1.37-.71c.3-.48.46-1.25.46-2.31s-.15-1.83-.46-2.31c-.3-.48-.76-.71-1.37-.71s-1.07.24-1.37.72ZM160.59,159.82c.31.34.46.81.46,1.4v4.63h-1.7v-4.34c0-.62-.21-.94-.62-.94-.22,0-.42.07-.59.22s-.34.37-.52.67v4.39h-1.7v-4.34c0-.62-.21-.94-.62-.94-.22,0-.42.07-.59.22-.17.15-.34.37-.5.67v4.39h-1.7v-6.36h1.48l.13.79c.24-.32.51-.56.81-.73.3-.17.65-.25,1.04-.25.36,0,.67.09.94.27.26.18.46.43.58.76.26-.34.55-.6.86-.77.31-.17.66-.26,1.05-.26.5,0,.91.17,1.22.52ZM167.88,159.49l-2.04,6.36h-2.03l-2.08-6.36h1.85l1.26,5.03,1.28-5.03h1.75ZM173.42,164.63c.07.12.19.2.36.26l-.36,1.13c-.38-.03-.68-.12-.92-.26-.23-.14-.42-.37-.54-.67-.42.64-1.05.96-1.91.96-.63,0-1.13-.18-1.51-.55-.37-.36-.56-.84-.56-1.42,0-.7.25-1.23.76-1.6.5-.37,1.23-.55,2.17-.55h.73v-.31c0-.39-.09-.66-.26-.82-.18-.15-.47-.23-.88-.23-.45,0-1.01.11-1.68.34l-.38-1.14c.79-.31,1.58-.47,2.35-.47.86,0,1.5.19,1.91.56s.61.93.61,1.66v2.57c0,.25.04.43.11.55ZM170.11,156.61c.17.17.26.38.26.63s-.09.46-.26.63-.39.26-.64.26-.46-.09-.64-.26c-.18-.17-.26-.38-.26-.63s.09-.46.26-.63c.18-.17.39-.26.64-.26s.47.09.64.26ZM171.64,164.11v-1.21h-.56c-.92,0-1.38.34-1.38,1.03,0,.28.07.5.21.65.14.16.34.23.61.23.48,0,.86-.24,1.13-.71ZM172.83,156.61c.18.17.27.38.27.63s-.09.46-.27.63-.39.26-.65.26-.46-.09-.63-.26-.26-.38-.26-.63.09-.46.26-.63c.17-.17.38-.26.63-.26s.47.09.65.26ZM178.94,159.41l-.29,1.64c-.22-.06-.41-.08-.56-.08-.38,0-.67.13-.88.4-.21.26-.37.66-.49,1.2v3.29h-1.7v-6.36h1.48l.16,1.24c.15-.45.37-.8.67-1.04s.62-.37.99-.37c.19,0,.4.03.64.1ZM180.15,165.59c-.29-.3-.43-.73-.43-1.28v-7.36l1.7-.19v7.5c0,.28.12.42.35.42.13,0,.24-.02.34-.07l.35,1.21c-.33.14-.69.22-1.09.22-.52,0-.92-.15-1.21-.45ZM188.78,156.96v8.89h-1.5l-.1-.78c-.45.65-1.06.97-1.82.97s-1.38-.3-1.79-.91-.62-1.43-.62-2.47c0-.66.11-1.24.32-1.75.21-.51.51-.91.91-1.19.39-.29.84-.43,1.36-.43.59,0,1.11.21,1.55.64v-3.17l1.7.19ZM186.52,164.59c.19-.12.38-.32.55-.58v-2.84c-.17-.2-.34-.35-.51-.45-.17-.1-.37-.15-.59-.15-.39,0-.7.17-.92.52-.22.34-.33.88-.33,1.6,0,.76.1,1.3.29,1.62.2.32.48.48.85.48.25,0,.47-.06.66-.19ZM194.88,160.07l-.65.97c-.54-.34-1.06-.5-1.58-.5-.28,0-.5.05-.65.16-.15.1-.23.24-.23.42,0,.13.03.24.1.32.07.09.2.17.38.25.19.08.47.18.85.29.67.18,1.17.43,1.5.74.33.31.49.73.49,1.27,0,.42-.12.79-.37,1.1-.24.31-.57.55-.99.71-.42.16-.88.25-1.39.25s-1.02-.08-1.46-.25c-.44-.16-.82-.39-1.13-.68l.84-.94c.54.42,1.1.62,1.7.62.32,0,.57-.06.76-.19.19-.12.28-.29.28-.51,0-.17-.04-.3-.11-.4-.07-.1-.2-.19-.4-.27-.19-.08-.49-.18-.9-.29-.64-.18-1.11-.43-1.42-.75-.31-.32-.46-.73-.46-1.21,0-.36.1-.68.31-.97s.5-.51.88-.68c.38-.16.82-.25,1.33-.25.9,0,1.66.26,2.3.77ZM201.05,164.63c.07.12.19.2.36.26l-.36,1.13c-.38-.03-.68-.12-.92-.26-.24-.14-.42-.37-.55-.67-.42.64-1.05.96-1.91.96-.63,0-1.13-.18-1.51-.55s-.56-.84-.56-1.42c0-.7.25-1.23.76-1.6.5-.37,1.23-.55,2.17-.55h.73v-.31c0-.39-.09-.66-.26-.82-.18-.15-.47-.23-.88-.23-.45,0-1.01.11-1.68.34l-.38-1.14c.79-.31,1.58-.47,2.35-.47.86,0,1.5.19,1.91.56s.61.93.61,1.66v2.57c0,.25.04.43.11.55ZM199.28,164.11v-1.21h-.56c-.92,0-1.38.34-1.38,1.03,0,.28.07.5.21.65.14.16.34.23.61.23.48,0,.86-.24,1.13-.71ZM207.51,159.81c.31.34.47.81.47,1.41v4.63h-1.7v-4.34c0-.34-.06-.59-.17-.73-.12-.14-.29-.21-.52-.21s-.46.07-.65.22c-.2.15-.39.37-.57.67v4.39h-1.7v-6.36h1.48l.13.8c.26-.33.55-.58.87-.74.32-.17.67-.25,1.07-.25.56,0,1,.17,1.31.51ZM214.57,164.63c.07.12.19.2.36.26l-.36,1.13c-.38-.03-.68-.12-.92-.26-.24-.14-.42-.37-.55-.67-.42.64-1.05.96-1.91.96-.63,0-1.13-.18-1.51-.55s-.56-.84-.56-1.42c0-.7.25-1.23.76-1.6.5-.37,1.23-.55,2.17-.55h.73v-.31c0-.39-.09-.66-.26-.82-.18-.15-.47-.23-.88-.23-.45,0-1.01.11-1.68.34l-.38-1.14c.79-.31,1.58-.47,2.35-.47.86,0,1.5.19,1.91.56s.61.93.61,1.66v2.57c0,.25.04.43.11.55ZM212.79,164.11v-1.21h-.56c-.92,0-1.38.34-1.38,1.03,0,.28.07.5.21.65.14.16.34.23.61.23.48,0,.86-.24,1.13-.71ZM216.42,165.59c-.29-.3-.43-.73-.43-1.28v-7.36l1.7-.19v7.5c0,.28.12.42.35.42.13,0,.24-.02.34-.07l.35,1.21c-.33.14-.69.22-1.09.22-.52,0-.92-.15-1.21-.45ZM222.75,165.86c-.26.81-.66,1.43-1.21,1.87s-1.29.69-2.23.76l-.18-1.22c.61-.08,1.05-.22,1.34-.43s.52-.54.7-.98h-.59l-1.98-6.36h1.81l1.27,5.26,1.34-5.26h1.76l-2.05,6.37ZM229.94,160.07l-.65.97c-.54-.34-1.06-.5-1.58-.5-.28,0-.5.05-.65.16-.15.1-.23.24-.23.42,0,.13.03.24.1.32.07.09.2.17.38.25.19.08.47.18.85.29.67.18,1.17.43,1.5.74.33.31.49.73.49,1.27,0,.42-.12.79-.37,1.1-.24.31-.57.55-.99.71-.42.16-.88.25-1.39.25s-1.02-.08-1.46-.25c-.44-.16-.82-.39-1.13-.68l.84-.94c.54.42,1.1.62,1.7.62.32,0,.57-.06.76-.19.19-.12.28-.29.28-.51,0-.17-.04-.3-.11-.4-.07-.1-.2-.19-.4-.27-.19-.08-.49-.18-.9-.29-.64-.18-1.11-.43-1.42-.75-.31-.32-.46-.73-.46-1.21,0-.36.1-.68.31-.97s.5-.51.88-.68c.38-.16.82-.25,1.33-.25.9,0,1.66.26,2.3.77Z"/>
      <path id="oa_symbol" class="cls-3" d="M124.96,155.14c-7.05,0-12.76,6.33-12.76,6.33,0,0,5.71,6.33,12.76,6.33s12.76-6.33,12.76-6.33c0,0-5.71-6.33-12.76-6.33ZM124.96,165.56c-2.26,0-4.09-1.83-4.09-4.09s1.83-4.09,4.09-4.09,4.09,1.83,4.09,4.09-1.83,4.09-4.09,4.09Z"/>
    </g>
    <g id="beslut_beskrivning">
      <path id="beslut_text" class="cls-2" d="M69.75,162.15c.35.3.52.76.52,1.37,0,.87-.31,1.49-.94,1.86-.62.37-1.49.55-2.6.55h-2.59v-8.3h2.27c1.14,0,2,.17,2.6.5.6.34.9.88.9,1.62,0,.49-.15.88-.44,1.18s-.65.5-1.09.61c.56.1,1.01.31,1.36.61ZM65.9,158.91v2.1h.86c.43,0,.76-.09,1-.27.23-.18.35-.45.35-.82s-.12-.63-.37-.78c-.25-.15-.64-.23-1.16-.23h-.67ZM68,164.38c.29-.16.43-.47.43-.93,0-.83-.51-1.25-1.54-1.25h-1v2.42h.84c.55,0,.97-.08,1.26-.25ZM76.82,163.27h-3.97c.06.58.21.98.47,1.22.26.24.6.36,1.04.36.27,0,.53-.04.77-.13.24-.09.5-.23.78-.42l.71.96c-.71.58-1.52.86-2.41.86-1,0-1.77-.3-2.3-.9-.54-.6-.8-1.41-.8-2.44,0-.65.11-1.23.34-1.75.23-.52.56-.92,1-1.22s.95-.44,1.55-.44c.9,0,1.61.28,2.11.85.5.57.76,1.36.76,2.38,0,.08-.01.3-.04.66ZM75.17,162.13c0-1.06-.38-1.58-1.14-1.58-.35,0-.63.13-.82.39-.2.26-.31.68-.35,1.27h2.32v-.07ZM82.51,160.15l-.65.97c-.54-.34-1.06-.5-1.58-.5-.28,0-.5.05-.65.16-.15.1-.23.24-.23.42,0,.13.03.24.1.32.07.09.2.17.38.25.19.08.47.18.85.29.67.18,1.17.43,1.5.74.33.31.49.73.49,1.27,0,.42-.12.79-.37,1.1s-.57.55-.99.71c-.42.16-.88.25-1.39.25s-1.02-.08-1.46-.25c-.44-.16-.82-.39-1.13-.68l.84-.94c.54.42,1.1.62,1.7.62.32,0,.57-.06.76-.19s.28-.29.28-.51c0-.17-.04-.3-.11-.4-.07-.1-.2-.19-.4-.27-.19-.08-.49-.18-.9-.29-.64-.18-1.11-.43-1.42-.75-.31-.32-.46-.73-.46-1.21,0-.36.1-.68.31-.97.21-.29.5-.51.88-.68.38-.16.82-.25,1.33-.25.9,0,1.66.26,2.3.77ZM84.21,165.68c-.29-.3-.43-.73-.43-1.28v-7.36l1.7-.19v7.5c0,.28.12.42.35.42.13,0,.24-.02.34-.07l.35,1.21c-.33.14-.69.22-1.09.22-.52,0-.92-.15-1.21-.45ZM92.6,165.94h-1.48l-.08-.85c-.22.35-.5.61-.82.79s-.69.26-1.12.26c-.58,0-1.02-.17-1.32-.52s-.46-.83-.46-1.46v-4.57h1.7v4.36c0,.34.06.57.17.71.11.14.29.21.53.21.46,0,.84-.28,1.16-.83v-4.45h1.7v6.36ZM98.09,165.64c-.23.16-.49.28-.79.37-.29.08-.58.13-.87.13-.66,0-1.15-.2-1.49-.56-.34-.37-.5-.91-.5-1.62v-3.17h-.95v-1.2h.95v-1.39l1.7-.2v1.6h1.46l-.17,1.2h-1.3v3.13c0,.3.05.52.16.66.1.14.26.2.48.2s.46-.07.72-.22l.59,1.08Z"/>
      <g id="beslut_symbol">
        <path class="cls-9" d="M48.03,169.67c-4.3,0-7.8-3.5-7.8-7.8s3.5-7.8,7.8-7.8,7.8,3.5,7.8,7.8-3.5,7.8-7.8,7.8Z"/>
        <path class="cls-2" d="M48.03,154.79c3.91,0,7.09,3.18,7.09,7.09s-3.18,7.09-7.09,7.09-7.09-3.18-7.09-7.09,3.18-7.09,7.09-7.09M48.03,153.37c-4.7,0-8.5,3.81-8.5,8.5s3.81,8.5,8.5,8.5,8.5-3.81,8.5-8.5-3.81-8.5-8.5-8.5h0Z"/>
      </g>
    </g>
    <g id="vsh_g_beskrivning">
      <path id="vsh_g_text" class="cls-2" d="M310.47,189.76l-2.39,8.3h-2.15l-2.47-8.3h1.88l1.69,6.84,1.63-6.84h1.8ZM316.26,195.4h-3.97c.06.58.21.98.47,1.22.26.24.6.36,1.04.36.27,0,.53-.04.77-.13s.5-.23.78-.42l.71.96c-.71.58-1.52.86-2.41.86-1,0-1.77-.3-2.3-.9-.54-.6-.8-1.41-.8-2.44,0-.65.11-1.23.34-1.75.23-.52.56-.92,1-1.22.44-.3.95-.44,1.55-.44.9,0,1.61.28,2.11.85.5.57.76,1.36.76,2.38,0,.08-.01.3-.04.66ZM314.6,194.26c0-1.06-.38-1.58-1.14-1.58-.35,0-.63.13-.82.39-.2.26-.31.68-.35,1.27h2.32v-.07ZM321.45,191.62l-.29,1.64c-.22-.06-.41-.08-.56-.08-.38,0-.67.13-.88.4-.21.26-.37.66-.49,1.2v3.29h-1.7v-6.36h1.48l.16,1.24c.15-.45.37-.8.67-1.04s.62-.37.99-.37c.19,0,.4.03.64.1ZM324,188.98v9.08h-1.7v-8.89l1.7-.19ZM327.86,191.7l-2.03,2.8,2.21,3.56h-1.93l-2.05-3.48,2.04-2.88h1.76ZM333.15,192.28l-.65.97c-.54-.34-1.06-.5-1.58-.5-.28,0-.5.05-.65.16-.15.1-.23.24-.23.42,0,.13.03.24.1.32.07.09.2.17.38.25.19.08.47.18.85.29.67.18,1.17.43,1.5.74.33.31.49.73.49,1.27,0,.42-.12.79-.37,1.1-.24.31-.57.55-.99.71-.42.16-.88.25-1.39.25s-1.02-.08-1.46-.25c-.44-.16-.82-.39-1.13-.68l.84-.94c.54.42,1.1.62,1.7.62.32,0,.57-.06.76-.19.19-.12.28-.29.28-.51,0-.17-.04-.3-.11-.4-.07-.1-.2-.19-.4-.27-.19-.08-.49-.18-.9-.29-.64-.18-1.11-.43-1.42-.75-.31-.32-.46-.73-.46-1.21,0-.36.1-.68.31-.97.21-.29.5-.51.88-.68.38-.16.82-.25,1.33-.25.9,0,1.66.26,2.3.77ZM339.33,196.85c.07.12.19.2.36.26l-.36,1.13c-.38-.03-.68-.12-.92-.26-.24-.14-.42-.37-.55-.67-.42.64-1.05.96-1.91.96-.63,0-1.13-.18-1.51-.55s-.56-.84-.56-1.42c0-.7.25-1.23.76-1.6.5-.37,1.23-.55,2.17-.55h.73v-.31c0-.39-.09-.66-.26-.82-.18-.15-.47-.23-.88-.23-.45,0-1.01.11-1.68.34l-.38-1.14c.79-.31,1.58-.47,2.35-.47.86,0,1.5.19,1.91.56s.61.93.61,1.66v2.57c0,.25.04.43.11.55ZM337.56,196.32v-1.21h-.56c-.92,0-1.38.34-1.38,1.03,0,.28.07.5.21.65.14.16.34.23.61.23.48,0,.86-.24,1.13-.71ZM349.02,192.03c.31.34.46.81.46,1.4v4.63h-1.7v-4.34c0-.62-.21-.94-.62-.94-.22,0-.42.07-.59.22-.17.14-.34.37-.52.67v4.39h-1.7v-4.34c0-.62-.21-.94-.62-.94-.22,0-.42.07-.59.22-.17.15-.34.37-.5.67v4.39h-1.7v-6.36h1.48l.13.79c.24-.32.51-.56.81-.73s.65-.25,1.04-.25c.36,0,.67.09.94.27.26.18.46.43.58.76.26-.34.55-.6.86-.77s.66-.26,1.05-.26c.5,0,.91.17,1.22.52ZM355.96,192.02c.32.34.47.81.47,1.41v4.63h-1.7v-4.34c0-.34-.06-.59-.18-.73-.12-.14-.29-.21-.52-.21-.45,0-.86.29-1.22.88v4.4h-1.7v-8.89l1.7-.18v3.43c.26-.3.53-.53.83-.68.3-.15.64-.23,1.01-.23.55,0,.99.17,1.3.51ZM363.39,195.4h-3.97c.06.58.21.98.47,1.22.26.24.6.36,1.04.36.27,0,.53-.04.77-.13.24-.09.5-.23.78-.42l.71.96c-.71.58-1.52.86-2.41.86-1,0-1.77-.3-2.3-.9s-.8-1.41-.8-2.44c0-.65.11-1.23.34-1.75.23-.52.56-.92,1-1.22.44-.3.95-.44,1.55-.44.9,0,1.61.28,2.11.85.5.57.76,1.36.76,2.38,0,.08-.01.3-.04.66ZM361.74,194.26c0-1.06-.38-1.58-1.14-1.58-.35,0-.63.13-.82.39-.2.26-.31.68-.35,1.27h2.32v-.07ZM368.47,197.76c-.23.16-.49.28-.79.37-.29.08-.58.13-.87.13-.66,0-1.15-.2-1.49-.56-.34-.37-.5-.91-.5-1.62v-3.17h-.95v-1.2h.95v-1.39l1.7-.2v1.6h1.46l-.17,1.2h-1.3v3.13c0,.3.05.52.16.66.1.14.26.2.48.2s.46-.07.72-.22l.59,1.08ZM373.64,192.28l-.65.97c-.54-.34-1.06-.5-1.58-.5-.28,0-.5.05-.65.16-.15.1-.23.24-.23.42,0,.13.03.24.1.32.07.09.2.17.38.25.19.08.47.18.85.29.67.18,1.17.43,1.5.74.33.31.49.73.49,1.27,0,.42-.12.79-.37,1.1-.24.31-.57.55-.99.71-.42.16-.88.25-1.39.25s-1.02-.08-1.46-.25c-.44-.16-.82-.39-1.13-.68l.84-.94c.54.42,1.1.62,1.7.62.32,0,.57-.06.76-.19.19-.12.28-.29.28-.51,0-.17-.04-.3-.11-.4-.07-.1-.2-.19-.4-.27-.19-.08-.49-.18-.9-.29-.64-.18-1.11-.43-1.42-.75-.31-.32-.46-.73-.46-1.21,0-.36.1-.68.31-.97s.5-.51.88-.68c.38-.16.82-.25,1.33-.25.9,0,1.66.26,2.3.77ZM380.48,189.17v8.89h-1.5l-.1-.78c-.45.65-1.06.97-1.82.97s-1.38-.3-1.79-.91-.62-1.43-.62-2.47c0-.66.11-1.24.32-1.75.21-.51.51-.91.91-1.19.39-.29.84-.43,1.36-.43.59,0,1.11.21,1.55.64v-3.17l1.7.19ZM378.22,196.8c.19-.12.38-.32.55-.58v-2.84c-.17-.2-.34-.35-.51-.45-.17-.1-.37-.15-.59-.15-.39,0-.7.17-.92.52-.22.34-.33.88-.33,1.6,0,.76.1,1.3.29,1.62.2.32.48.48.85.48.25,0,.47-.06.66-.19ZM383.75,188.71c.2.19.29.43.29.71s-.1.53-.29.71-.45.28-.75.28-.55-.09-.74-.28c-.19-.19-.29-.43-.29-.71s.1-.53.29-.71c.19-.19.44-.28.74-.28s.55.09.75.28ZM383.87,191.7v6.36h-1.7v-6.36h1.7ZM390.51,196.85c.07.12.19.2.36.26l-.36,1.13c-.38-.03-.68-.12-.92-.26-.24-.14-.42-.37-.55-.67-.42.64-1.05.96-1.91.96-.63,0-1.13-.18-1.51-.55s-.56-.84-.56-1.42c0-.7.25-1.23.76-1.6.5-.37,1.23-.55,2.17-.55h.73v-.31c0-.39-.09-.66-.26-.82-.18-.15-.47-.23-.88-.23-.45,0-1.01.11-1.68.34l-.38-1.14c.79-.31,1.58-.47,2.35-.47.86,0,1.5.19,1.91.56s.61.93.61,1.66v2.57c0,.25.04.43.11.55ZM388.74,196.32v-1.21h-.56c-.92,0-1.38.34-1.38,1.03,0,.28.07.5.21.65.14.16.34.23.61.23.48,0,.86-.24,1.13-.71ZM392.36,197.81c-.29-.3-.43-.73-.43-1.28v-7.36l1.7-.19v7.5c0,.28.12.42.35.42.13,0,.24-.02.34-.07l.35,1.21c-.33.14-.69.22-1.09.22-.52,0-.92-.15-1.21-.45ZM400.39,192.4c.54.6.8,1.42.8,2.48,0,.67-.12,1.26-.37,1.77-.24.51-.6.9-1.06,1.18s-1,.42-1.63.42c-.95,0-1.7-.3-2.24-.89-.54-.6-.81-1.42-.81-2.48,0-.67.12-1.26.37-1.77.24-.51.6-.9,1.06-1.18.46-.28,1.01-.42,1.64-.42.95,0,1.7.3,2.23.89ZM397.19,193.29c-.21.34-.32.87-.32,1.59s.11,1.25.32,1.59c.21.34.53.51.95.51s.74-.17.95-.51c.21-.34.32-.87.32-1.59s-.1-1.25-.31-1.59c-.21-.34-.52-.51-.95-.51s-.75.17-.97.51ZM408.18,192.05c-.42.16-1.03.24-1.84.24.4.18.7.39.89.65.19.26.29.59.29.98s-.11.77-.32,1.1-.52.58-.91.76c-.4.18-.86.28-1.39.28-.28,0-.53-.03-.74-.08-.16.1-.24.24-.24.42,0,.13.05.23.15.31s.29.11.58.11h.97c.47,0,.89.08,1.24.23.36.16.63.37.83.65.2.28.29.59.29.94,0,.65-.28,1.15-.83,1.52-.56.36-1.36.55-2.41.55-.75,0-1.35-.08-1.78-.23-.44-.16-.74-.38-.92-.68-.18-.3-.26-.67-.26-1.12h1.52c0,.21.04.37.12.5.08.12.23.22.44.28.21.06.52.09.92.09.55,0,.94-.07,1.16-.2.22-.14.33-.33.33-.58,0-.22-.08-.4-.25-.52-.17-.12-.42-.18-.74-.18h-.94c-.63,0-1.1-.12-1.42-.35-.31-.24-.47-.53-.47-.89,0-.22.07-.44.2-.65s.31-.39.55-.53c-.39-.22-.68-.47-.86-.76-.18-.29-.27-.64-.27-1.05,0-.46.11-.87.34-1.22.23-.35.55-.62.96-.8s.88-.28,1.41-.28c.66.02,1.2-.04,1.62-.17.42-.13.88-.33,1.36-.6l.42,1.31ZM404.05,192.96c-.19.2-.28.48-.28.83s.09.64.28.85c.19.21.45.31.77.31s.6-.1.78-.3c.18-.2.26-.5.26-.89,0-.74-.35-1.12-1.06-1.12-.32,0-.57.1-.76.31ZM310.1,206.45c-.42.16-1.03.24-1.84.24.4.18.7.39.89.65.19.26.29.59.29.98s-.11.77-.32,1.1-.52.58-.91.76c-.4.18-.86.28-1.39.28-.28,0-.53-.03-.74-.08-.16.1-.24.24-.24.42,0,.13.05.23.15.31.1.08.29.11.58.11h.97c.47,0,.89.08,1.24.23.36.16.63.37.83.65.2.28.29.59.29.94,0,.65-.28,1.15-.83,1.52-.56.36-1.36.55-2.41.55-.75,0-1.35-.08-1.78-.23-.44-.16-.74-.38-.92-.68-.18-.3-.26-.67-.26-1.12h1.52c0,.21.04.37.12.5s.23.22.44.28.52.09.92.09c.55,0,.94-.07,1.16-.2s.33-.33.33-.58c0-.22-.08-.4-.25-.52-.17-.12-.42-.18-.74-.18h-.94c-.63,0-1.1-.12-1.42-.35-.31-.24-.47-.53-.47-.89,0-.22.07-.44.2-.65s.31-.39.55-.53c-.39-.22-.68-.47-.86-.76-.18-.29-.27-.64-.27-1.05,0-.46.11-.87.34-1.22.23-.35.55-.62.96-.8.41-.19.88-.28,1.41-.28.66.02,1.2-.04,1.62-.17.42-.13.88-.33,1.36-.6l.42,1.31ZM305.98,207.36c-.19.2-.28.48-.28.83s.09.64.28.85c.19.21.45.31.77.31s.6-.1.78-.3c.18-.2.26-.5.26-.89,0-.74-.35-1.12-1.06-1.12-.32,0-.57.1-.76.31ZM316.04,209.8h-3.97c.06.58.21.98.47,1.22.26.24.6.36,1.04.36.27,0,.53-.04.77-.13s.5-.23.78-.42l.71.96c-.71.58-1.52.86-2.41.86-1,0-1.77-.3-2.3-.9-.54-.6-.8-1.41-.8-2.44,0-.65.11-1.23.34-1.75.23-.52.56-.92,1-1.22.44-.3.95-.44,1.55-.44.9,0,1.61.28,2.11.85.5.57.76,1.36.76,2.38,0,.08-.01.3-.04.66ZM314.39,208.66c0-1.06-.38-1.58-1.14-1.58-.35,0-.63.13-.82.39-.2.26-.31.68-.35,1.27h2.32v-.07ZM325.41,206.43c.31.34.46.81.46,1.4v4.63h-1.7v-4.34c0-.62-.21-.94-.62-.94-.22,0-.42.07-.59.22s-.34.37-.52.67v4.39h-1.7v-4.34c0-.62-.21-.94-.62-.94-.22,0-.42.07-.59.22-.17.15-.34.37-.5.67v4.39h-1.7v-6.36h1.48l.13.79c.24-.32.51-.56.81-.73s.65-.25,1.04-.25c.36,0,.67.09.94.27.26.18.46.43.58.76.26-.34.55-.6.86-.77.31-.17.66-.26,1.05-.26.5,0,.91.17,1.22.52ZM332.83,209.8h-3.97c.06.58.21.98.47,1.22.26.24.6.36,1.04.36.27,0,.53-.04.77-.13.24-.09.5-.23.78-.42l.71.96c-.71.58-1.52.86-2.41.86-1,0-1.77-.3-2.3-.9s-.8-1.41-.8-2.44c0-.65.11-1.23.34-1.75.23-.52.56-.92,1-1.22.44-.3.95-.44,1.55-.44.9,0,1.61.28,2.11.85.5.57.76,1.36.76,2.38,0,.08-.01.3-.04.66ZM331.17,208.66c0-1.06-.38-1.58-1.14-1.58-.35,0-.63.13-.82.39-.2.26-.31.68-.35,1.27h2.32v-.07ZM338.96,206.42c.31.34.47.81.47,1.41v4.63h-1.7v-4.34c0-.34-.06-.59-.17-.73-.12-.14-.29-.21-.52-.21s-.46.07-.65.22c-.2.15-.39.37-.57.67v4.39h-1.7v-6.36h1.48l.13.8c.26-.33.55-.58.87-.74.32-.17.67-.25,1.07-.25.56,0,1,.17,1.31.51ZM345.46,206.68l-.65.97c-.54-.34-1.06-.5-1.58-.5-.28,0-.5.05-.65.16-.15.1-.23.24-.23.42,0,.13.03.24.1.32.07.09.2.17.38.25.19.08.47.18.85.29.67.18,1.17.43,1.5.74.33.31.49.73.49,1.27,0,.42-.12.79-.37,1.1-.24.31-.57.55-.99.71-.42.16-.88.25-1.39.25s-1.02-.08-1.46-.25c-.44-.16-.82-.39-1.13-.68l.84-.94c.54.42,1.1.62,1.7.62.32,0,.57-.06.76-.19.19-.12.28-.29.28-.51,0-.17-.04-.3-.11-.4-.07-.1-.2-.19-.4-.27-.19-.08-.49-.18-.9-.29-.64-.18-1.11-.43-1.42-.75-.31-.32-.46-.73-.46-1.21,0-.36.1-.68.31-.97s.5-.51.88-.68c.38-.16.82-.25,1.33-.25.9,0,1.66.26,2.3.77ZM351.65,211.25c.07.12.19.2.36.26l-.36,1.13c-.38-.03-.68-.12-.92-.26-.24-.14-.42-.37-.55-.67-.42.64-1.05.96-1.91.96-.63,0-1.13-.18-1.51-.55s-.56-.84-.56-1.42c0-.7.25-1.23.76-1.6.5-.37,1.23-.55,2.17-.55h.73v-.31c0-.39-.09-.66-.26-.82-.18-.15-.47-.23-.88-.23-.45,0-1.01.11-1.68.34l-.38-1.14c.79-.31,1.58-.47,2.35-.47.86,0,1.5.19,1.91.56s.61.93.61,1.66v2.57c0,.25.04.43.11.55ZM349.87,210.72v-1.21h-.56c-.92,0-1.38.34-1.38,1.03,0,.28.07.5.21.65.14.16.34.23.61.23.48,0,.86-.24,1.13-.71ZM361.34,206.43c.31.34.46.81.46,1.4v4.63h-1.7v-4.34c0-.62-.21-.94-.62-.94-.22,0-.42.07-.59.22-.17.14-.34.37-.52.67v4.39h-1.7v-4.34c0-.62-.21-.94-.62-.94-.22,0-.42.07-.59.22-.17.15-.34.37-.5.67v4.39h-1.7v-6.36h1.48l.13.79c.24-.32.51-.56.81-.73s.65-.25,1.04-.25c.36,0,.67.09.94.27.26.18.46.43.58.76.26-.34.55-.6.86-.77s.66-.26,1.05-.26c.5,0,.91.17,1.22.52Z"/>
      <polygon id="vsh_g_symbol" class="cls-5" points="286.45 193.39 277.39 209.03 295.5 209.03 286.45 193.39"/>
    </g>
    <g id="vsh_e_beskrivning">
      <path id="vsh_e_text" class="cls-2" d="M70.66,189.76l-2.39,8.3h-2.15l-2.47-8.3h1.88l1.69,6.84,1.63-6.84h1.8ZM76.44,195.4h-3.97c.06.58.21.98.47,1.22.26.24.6.36,1.04.36.27,0,.53-.04.77-.13.24-.09.5-.23.78-.42l.71.96c-.71.58-1.52.86-2.41.86-1,0-1.77-.3-2.3-.9-.54-.6-.8-1.41-.8-2.44,0-.65.11-1.23.34-1.75.23-.52.56-.92,1-1.22s.95-.44,1.55-.44c.9,0,1.61.28,2.11.85.5.57.76,1.36.76,2.38,0,.08-.01.3-.04.66ZM74.78,194.26c0-1.06-.38-1.58-1.14-1.58-.35,0-.63.13-.82.39-.2.26-.31.68-.35,1.27h2.32v-.07ZM81.64,191.62l-.29,1.64c-.22-.06-.41-.08-.56-.08-.38,0-.67.13-.88.4-.21.26-.37.66-.49,1.2v3.29h-1.7v-6.36h1.48l.16,1.24c.15-.45.37-.8.67-1.04.29-.25.62-.37.99-.37.19,0,.4.03.64.1ZM84.18,188.98v9.08h-1.7v-8.89l1.7-.19ZM88.05,191.7l-2.03,2.8,2.21,3.56h-1.93l-2.05-3.48,2.04-2.88h1.76ZM93.34,192.28l-.65.97c-.54-.34-1.06-.5-1.58-.5-.28,0-.5.05-.65.16-.15.1-.23.24-.23.42,0,.13.03.24.1.32.07.09.2.17.38.25.19.08.47.18.85.29.67.18,1.17.43,1.5.74.33.31.49.73.49,1.27,0,.42-.12.79-.37,1.1-.24.31-.57.55-.99.71-.42.16-.88.25-1.39.25s-1.02-.08-1.46-.25c-.44-.16-.82-.39-1.13-.68l.84-.94c.54.42,1.1.62,1.7.62.32,0,.57-.06.76-.19s.28-.29.28-.51c0-.17-.04-.3-.11-.4-.07-.1-.2-.19-.4-.27-.19-.08-.49-.18-.9-.29-.64-.18-1.11-.43-1.42-.75-.31-.32-.46-.73-.46-1.21,0-.36.1-.68.31-.97.21-.29.5-.51.88-.68.38-.16.82-.25,1.33-.25.9,0,1.66.26,2.3.77ZM99.52,196.85c.07.12.19.2.36.26l-.36,1.13c-.38-.03-.68-.12-.92-.26-.24-.14-.42-.37-.55-.67-.42.64-1.05.96-1.91.96-.63,0-1.13-.18-1.51-.55s-.56-.84-.56-1.42c0-.7.25-1.23.76-1.6.5-.37,1.23-.55,2.17-.55h.73v-.31c0-.39-.09-.66-.26-.82-.18-.15-.47-.23-.88-.23-.45,0-1.01.11-1.68.34l-.38-1.14c.79-.31,1.58-.47,2.35-.47.86,0,1.5.19,1.91.56s.61.93.61,1.66v2.57c0,.25.04.43.11.55ZM97.74,196.32v-1.21h-.56c-.92,0-1.38.34-1.38,1.03,0,.28.07.5.21.65.14.16.34.23.61.23.48,0,.86-.24,1.13-.71ZM109.21,192.03c.31.34.46.81.46,1.4v4.63h-1.7v-4.34c0-.62-.21-.94-.62-.94-.22,0-.42.07-.59.22-.17.14-.34.37-.52.67v4.39h-1.7v-4.34c0-.62-.21-.94-.62-.94-.22,0-.42.07-.59.22-.17.15-.34.37-.5.67v4.39h-1.7v-6.36h1.48l.13.79c.24-.32.51-.56.81-.73s.65-.25,1.04-.25c.36,0,.67.09.94.27.26.18.46.43.58.76.26-.34.55-.6.86-.77s.66-.26,1.05-.26c.5,0,.91.17,1.22.52ZM116.14,192.02c.32.34.47.81.47,1.41v4.63h-1.7v-4.34c0-.34-.06-.59-.18-.73-.12-.14-.29-.21-.52-.21-.45,0-.86.29-1.22.88v4.4h-1.7v-8.89l1.7-.18v3.43c.26-.3.53-.53.83-.68.3-.15.64-.23,1.01-.23.55,0,.99.17,1.3.51ZM123.58,195.4h-3.97c.06.58.21.98.47,1.22.26.24.6.36,1.04.36.27,0,.53-.04.77-.13.24-.09.5-.23.78-.42l.71.96c-.71.58-1.52.86-2.41.86-1,0-1.77-.3-2.3-.9s-.8-1.41-.8-2.44c0-.65.11-1.23.34-1.75.23-.52.56-.92,1-1.22.44-.3.95-.44,1.55-.44.9,0,1.61.28,2.11.85.5.57.76,1.36.76,2.38,0,.08-.01.3-.04.66ZM121.92,194.26c0-1.06-.38-1.58-1.14-1.58-.35,0-.63.13-.82.39-.2.26-.31.68-.35,1.27h2.32v-.07ZM128.65,197.76c-.23.16-.49.28-.79.37-.29.08-.58.13-.87.13-.66,0-1.15-.2-1.49-.56-.34-.37-.5-.91-.5-1.62v-3.17h-.95v-1.2h.95v-1.39l1.7-.2v1.6h1.46l-.17,1.2h-1.3v3.13c0,.3.05.52.16.66.1.14.26.2.48.2s.46-.07.72-.22l.59,1.08ZM133.82,192.28l-.65.97c-.54-.34-1.06-.5-1.58-.5-.28,0-.5.05-.65.16-.15.1-.23.24-.23.42,0,.13.03.24.1.32.07.09.2.17.38.25.19.08.47.18.85.29.67.18,1.17.43,1.5.74.33.31.49.73.49,1.27,0,.42-.12.79-.37,1.1-.24.31-.57.55-.99.71-.42.16-.88.25-1.39.25s-1.02-.08-1.46-.25c-.44-.16-.82-.39-1.13-.68l.84-.94c.54.42,1.1.62,1.7.62.32,0,.57-.06.76-.19.19-.12.28-.29.28-.51,0-.17-.04-.3-.11-.4-.07-.1-.2-.19-.4-.27-.19-.08-.49-.18-.9-.29-.64-.18-1.11-.43-1.42-.75-.31-.32-.46-.73-.46-1.21,0-.36.1-.68.31-.97s.5-.51.88-.68c.38-.16.82-.25,1.33-.25.9,0,1.66.26,2.3.77ZM140.66,189.17v8.89h-1.5l-.1-.78c-.45.65-1.06.97-1.82.97s-1.38-.3-1.79-.91-.62-1.43-.62-2.47c0-.66.11-1.24.32-1.75.21-.51.51-.91.91-1.19.39-.29.84-.43,1.36-.43.59,0,1.11.21,1.55.64v-3.17l1.7.19ZM138.41,196.8c.19-.12.38-.32.55-.58v-2.84c-.17-.2-.34-.35-.51-.45-.17-.1-.37-.15-.59-.15-.39,0-.7.17-.92.52-.22.34-.33.88-.33,1.6,0,.76.1,1.3.29,1.62.2.32.48.48.85.48.25,0,.47-.06.66-.19ZM143.93,188.71c.2.19.29.43.29.71s-.1.53-.29.71-.45.28-.75.28-.55-.09-.74-.28c-.19-.19-.29-.43-.29-.71s.1-.53.29-.71c.19-.19.44-.28.74-.28s.55.09.75.28ZM144.05,191.7v6.36h-1.7v-6.36h1.7ZM150.7,196.85c.07.12.19.2.36.26l-.36,1.13c-.38-.03-.68-.12-.92-.26-.24-.14-.42-.37-.55-.67-.42.64-1.05.96-1.91.96-.63,0-1.13-.18-1.51-.55s-.56-.84-.56-1.42c0-.7.25-1.23.76-1.6.5-.37,1.23-.55,2.17-.55h.73v-.31c0-.39-.09-.66-.26-.82-.18-.15-.47-.23-.88-.23-.45,0-1.01.11-1.68.34l-.38-1.14c.79-.31,1.58-.47,2.35-.47.86,0,1.5.19,1.91.56s.61.93.61,1.66v2.57c0,.25.04.43.11.55ZM148.92,196.32v-1.21h-.56c-.92,0-1.38.34-1.38,1.03,0,.28.07.5.21.65.14.16.34.23.61.23.48,0,.86-.24,1.13-.71ZM152.54,197.81c-.29-.3-.43-.73-.43-1.28v-7.36l1.7-.19v7.5c0,.28.12.42.35.42.13,0,.24-.02.34-.07l.35,1.21c-.33.14-.69.22-1.09.22-.52,0-.92-.15-1.21-.45ZM160.57,192.4c.54.6.8,1.42.8,2.48,0,.67-.12,1.26-.37,1.77-.24.51-.6.9-1.06,1.18s-1,.42-1.63.42c-.95,0-1.7-.3-2.24-.89-.54-.6-.81-1.42-.81-2.48,0-.67.12-1.26.37-1.77.24-.51.6-.9,1.06-1.18.46-.28,1.01-.42,1.64-.42.95,0,1.7.3,2.23.89ZM157.37,193.29c-.21.34-.32.87-.32,1.59s.11,1.25.32,1.59c.21.34.53.51.95.51s.74-.17.95-.51c.21-.34.32-.87.32-1.59s-.1-1.25-.31-1.59c-.21-.34-.52-.51-.95-.51s-.75.17-.97.51ZM168.36,192.05c-.42.16-1.03.24-1.84.24.4.18.7.39.89.65.19.26.29.59.29.98s-.11.77-.32,1.1-.52.58-.91.76c-.4.18-.86.28-1.39.28-.28,0-.53-.03-.74-.08-.16.1-.24.24-.24.42,0,.13.05.23.15.31s.29.11.58.11h.97c.47,0,.89.08,1.24.23.36.16.63.37.83.65.2.28.29.59.29.94,0,.65-.28,1.15-.83,1.52-.56.36-1.36.55-2.41.55-.75,0-1.35-.08-1.78-.23-.44-.16-.74-.38-.92-.68-.18-.3-.26-.67-.26-1.12h1.52c0,.21.04.37.12.5.08.12.23.22.44.28.21.06.52.09.92.09.55,0,.94-.07,1.16-.2.22-.14.33-.33.33-.58,0-.22-.08-.4-.25-.52-.17-.12-.42-.18-.74-.18h-.94c-.63,0-1.1-.12-1.42-.35-.31-.24-.47-.53-.47-.89,0-.22.07-.44.2-.65s.31-.39.55-.53c-.39-.22-.68-.47-.86-.76-.18-.29-.27-.64-.27-1.05,0-.46.11-.87.34-1.22.23-.35.55-.62.96-.8s.88-.28,1.41-.28c.66.02,1.2-.04,1.62-.17.42-.13.88-.33,1.36-.6l.42,1.31ZM164.24,192.96c-.19.2-.28.48-.28.83s.09.64.28.85c.19.21.45.31.77.31s.6-.1.78-.3c.18-.2.26-.5.26-.89,0-.74-.35-1.12-1.06-1.12-.32,0-.57.1-.76.31ZM177.47,195.4h-3.97c.06.58.21.98.47,1.22.26.24.6.36,1.04.36.27,0,.53-.04.77-.13.24-.09.5-.23.78-.42l.71.96c-.71.58-1.52.86-2.41.86-1,0-1.77-.3-2.3-.9s-.8-1.41-.8-2.44c0-.65.11-1.23.34-1.75.23-.52.56-.92,1-1.22.44-.3.95-.44,1.55-.44.9,0,1.61.28,2.11.85.5.57.76,1.36.76,2.38,0,.08-.01.3-.04.66ZM175.81,194.26c0-1.06-.38-1.58-1.14-1.58-.35,0-.63.13-.82.39-.2.26-.31.68-.35,1.27h2.32v-.07ZM183.6,192.02c.31.34.47.81.47,1.41v4.63h-1.7v-4.34c0-.34-.06-.59-.17-.73-.12-.14-.29-.21-.52-.21s-.46.07-.65.22c-.2.15-.39.37-.57.67v4.39h-1.7v-6.36h1.48l.13.8c.26-.33.55-.58.87-.74.32-.17.67-.25,1.07-.25.56,0,1,.17,1.31.51ZM190.1,192.28l-.65.97c-.54-.34-1.06-.5-1.58-.5-.28,0-.5.05-.65.16-.15.1-.23.24-.23.42,0,.13.03.24.1.32.07.09.2.17.38.25.19.08.47.18.85.29.67.18,1.17.43,1.5.74.33.31.49.73.49,1.27,0,.42-.12.79-.37,1.1-.24.31-.57.55-.99.71-.42.16-.88.25-1.39.25s-1.02-.08-1.46-.25c-.44-.16-.82-.39-1.13-.68l.84-.94c.54.42,1.1.62,1.7.62.32,0,.57-.06.76-.19.19-.12.28-.29.28-.51,0-.17-.04-.3-.11-.4-.07-.1-.2-.19-.4-.27-.19-.08-.49-.18-.9-.29-.64-.18-1.11-.43-1.42-.75-.31-.32-.46-.73-.46-1.21,0-.36.1-.68.31-.97s.5-.51.88-.68c.38-.16.82-.25,1.33-.25.9,0,1.66.26,2.3.77ZM193.14,188.98v9.08h-1.7v-8.89l1.7-.19ZM197,191.7l-2.03,2.8,2.21,3.56h-1.93l-2.05-3.48,2.04-2.88h1.76ZM199.53,188.71c.2.19.29.43.29.71s-.1.53-.29.71-.45.28-.75.28-.55-.09-.74-.28c-.19-.19-.29-.43-.29-.71s.1-.53.29-.71c.19-.19.44-.28.74-.28s.55.09.75.28ZM199.64,191.7v6.36h-1.7v-6.36h1.7ZM201.7,197.81c-.29-.3-.43-.73-.43-1.28v-7.36l1.7-.19v7.5c0,.28.12.42.35.42.13,0,.24-.02.34-.07l.35,1.21c-.33.14-.69.22-1.09.22-.52,0-.92-.15-1.21-.45ZM210.32,189.17v8.89h-1.5l-.1-.78c-.45.65-1.06.97-1.82.97s-1.38-.3-1.79-.91-.62-1.43-.62-2.47c0-.66.11-1.24.32-1.75.21-.51.51-.91.91-1.19.39-.29.84-.43,1.36-.43.59,0,1.11.21,1.55.64v-3.17l1.7.19ZM208.07,196.8c.19-.12.38-.32.55-.58v-2.84c-.17-.2-.34-.35-.51-.45-.17-.1-.37-.15-.59-.15-.39,0-.7.17-.92.52-.22.34-.33.88-.33,1.6,0,.76.1,1.3.29,1.62.2.32.48.48.85.48.25,0,.47-.06.66-.19ZM69.81,206.79c.39.59.58,1.41.58,2.48,0,.65-.1,1.23-.3,1.74-.2.51-.49.91-.87,1.21s-.83.44-1.35.44c-.65,0-1.17-.23-1.57-.68v2.94l-1.7.19v-9h1.5l.08.74c.24-.31.52-.55.85-.7.32-.16.66-.23,1-.23.8,0,1.39.29,1.78.88ZM68.62,209.28c0-.77-.09-1.31-.28-1.63-.18-.32-.46-.48-.84-.48-.24,0-.46.07-.67.22s-.38.35-.53.59v2.77c.27.42.63.62,1.07.62.83,0,1.25-.7,1.25-2.1ZM77.09,209.8h-3.97c.06.58.21.98.47,1.22.26.24.6.36,1.04.36.27,0,.53-.04.77-.13.24-.09.5-.23.78-.42l.71.96c-.71.58-1.52.86-2.41.86-1,0-1.77-.3-2.3-.9-.54-.6-.8-1.41-.8-2.44,0-.65.11-1.23.34-1.75.23-.52.56-.92,1-1.22s.95-.44,1.55-.44c.9,0,1.61.28,2.11.85.5.57.76,1.36.76,2.38,0,.08-.01.3-.04.66ZM75.43,208.66c0-1.06-.38-1.58-1.14-1.58-.35,0-.63.13-.82.39-.2.26-.31.68-.35,1.27h2.32v-.07ZM82.28,206.02l-.29,1.64c-.22-.06-.41-.08-.56-.08-.38,0-.67.13-.88.4-.21.26-.37.66-.49,1.2v3.29h-1.7v-6.36h1.48l.16,1.24c.15-.45.37-.8.67-1.04.29-.25.62-.37.99-.37.19,0,.4.03.64.1ZM87.64,203.11c.2.19.29.43.29.71s-.1.53-.29.71c-.2.19-.45.28-.75.28s-.55-.09-.74-.28-.29-.43-.29-.71.1-.53.29-.71.44-.28.74-.28.55.09.75.28ZM87.76,206.1v6.36h-1.7v-6.36h1.7ZM94.3,206.42c.31.34.47.81.47,1.41v4.63h-1.7v-4.34c0-.34-.06-.59-.17-.73-.12-.14-.29-.21-.52-.21s-.46.07-.65.22c-.2.15-.39.37-.57.67v4.39h-1.7v-6.36h1.48l.13.8c.26-.33.55-.58.87-.74.32-.17.67-.25,1.07-.25.56,0,1,.17,1.31.51ZM100.8,206.68l-.65.97c-.54-.34-1.06-.5-1.58-.5-.28,0-.5.05-.65.16-.15.1-.23.24-.23.42,0,.13.03.24.1.32.07.09.2.17.38.25.19.08.47.18.85.29.67.18,1.17.43,1.5.74.33.31.49.73.49,1.27,0,.42-.12.79-.37,1.1-.24.31-.57.55-.99.71-.42.16-.88.25-1.39.25s-1.02-.08-1.46-.25c-.44-.16-.82-.39-1.13-.68l.84-.94c.54.42,1.1.62,1.7.62.32,0,.57-.06.76-.19.19-.12.28-.29.28-.51,0-.17-.04-.3-.11-.4-.07-.1-.2-.19-.4-.27-.19-.08-.49-.18-.9-.29-.64-.18-1.11-.43-1.42-.75-.31-.32-.46-.73-.46-1.21,0-.36.1-.68.31-.97s.5-.51.88-.68c.38-.16.82-.25,1.33-.25.9,0,1.66.26,2.3.77ZM105.94,212.16c-.23.16-.49.28-.79.37-.29.08-.58.13-.87.13-.66,0-1.15-.2-1.49-.56-.34-.37-.5-.91-.5-1.62v-3.17h-.95v-1.2h.95v-1.39l1.7-.2v1.6h1.46l-.17,1.2h-1.3v3.13c0,.3.05.52.16.66.1.14.26.2.48.2s.46-.07.72-.22l.59,1.08ZM108.28,203.11c.2.19.29.43.29.71s-.1.53-.29.71-.45.28-.75.28-.55-.09-.74-.28c-.19-.19-.29-.43-.29-.71s.1-.53.29-.71c.19-.19.44-.28.74-.28s.55.09.75.28ZM108.4,206.1v6.36h-1.7v-6.36h1.7ZM113.88,212.16c-.23.16-.49.28-.79.37-.29.08-.58.13-.87.13-.66,0-1.15-.2-1.49-.56-.34-.37-.5-.91-.5-1.62v-3.17h-.95v-1.2h.95v-1.39l1.7-.2v1.6h1.46l-.17,1.2h-1.3v3.13c0,.3.05.52.16.66.1.14.26.2.48.2s.46-.07.72-.22l.59,1.08ZM119.84,212.46h-1.48l-.08-.85c-.22.35-.5.61-.82.79s-.69.26-1.12.26c-.58,0-1.02-.17-1.32-.52-.3-.35-.46-.83-.46-1.46v-4.57h1.7v4.36c0,.34.06.57.17.71.11.14.29.21.53.21.46,0,.84-.28,1.16-.83v-4.45h1.7v6.36ZM125.33,212.16c-.23.16-.49.28-.79.37-.29.08-.58.13-.87.13-.66,0-1.15-.2-1.49-.56-.34-.37-.5-.91-.5-1.62v-3.17h-.95v-1.2h.95v-1.39l1.7-.2v1.6h1.46l-.17,1.2h-1.3v3.13c0,.3.05.52.16.66.1.14.26.2.48.2s.46-.07.72-.22l.59,1.08ZM127.67,203.11c.2.19.29.43.29.71s-.1.53-.29.71-.45.28-.75.28-.55-.09-.74-.28c-.19-.19-.29-.43-.29-.71s.1-.53.29-.71c.19-.19.44-.28.74-.28s.55.09.75.28ZM127.79,206.1v6.36h-1.7v-6.36h1.7ZM134.38,206.8c.54.6.8,1.42.8,2.48,0,.67-.12,1.26-.37,1.77-.24.51-.6.9-1.06,1.18s-1,.42-1.63.42c-.95,0-1.7-.3-2.24-.89-.54-.6-.81-1.42-.81-2.48,0-.67.12-1.26.37-1.77.24-.51.6-.9,1.06-1.18.46-.28,1.01-.42,1.64-.42.95,0,1.7.3,2.23.89ZM131.18,207.69c-.21.34-.32.87-.32,1.59s.11,1.25.32,1.59c.21.34.53.51.95.51s.74-.17.95-.51c.21-.34.32-.87.32-1.59s-.1-1.25-.31-1.59c-.21-.34-.52-.51-.95-.51s-.75.17-.97.51ZM141.34,206.42c.31.34.47.81.47,1.41v4.63h-1.7v-4.34c0-.34-.06-.59-.17-.73-.12-.14-.29-.21-.52-.21s-.46.07-.65.22c-.2.15-.39.37-.57.67v4.39h-1.7v-6.36h1.48l.13.8c.26-.33.55-.58.87-.74.32-.17.67-.25,1.07-.25.56,0,1,.17,1.31.51ZM146.38,202.7l1.48.34-2.81,10.75-1.49-.35,2.82-10.74ZM154.7,206.1l-2.04,6.36h-2.03l-2.08-6.36h1.85l1.26,5.03,1.28-5.03h1.75ZM160.78,209.8h-3.97c.06.58.21.98.47,1.22.26.24.6.36,1.04.36.27,0,.53-.04.77-.13.24-.09.5-.23.78-.42l.71.96c-.71.58-1.52.86-2.41.86-1,0-1.77-.3-2.3-.9s-.8-1.41-.8-2.44c0-.65.11-1.23.34-1.75.23-.52.56-.92,1-1.22.44-.3.95-.44,1.55-.44.9,0,1.61.28,2.11.85.5.57.76,1.36.76,2.38,0,.08-.01.3-.04.66ZM159.12,208.66c0-1.06-.38-1.58-1.14-1.58-.35,0-.63.13-.82.39-.2.26-.31.68-.35,1.27h2.32v-.07ZM165.97,206.02l-.29,1.64c-.22-.06-.41-.08-.56-.08-.38,0-.67.13-.88.4-.21.26-.37.66-.49,1.2v3.29h-1.7v-6.36h1.48l.16,1.24c.15-.45.37-.8.67-1.04s.62-.37.99-.37c.19,0,.4.03.64.1ZM168.52,203.38v9.08h-1.7v-8.89l1.7-.19ZM172.38,206.1l-2.03,2.8,2.21,3.56h-1.93l-2.05-3.48,2.04-2.88h1.76ZM177.67,206.68l-.65.97c-.54-.34-1.06-.5-1.58-.5-.28,0-.5.05-.65.16-.15.1-.23.24-.23.42,0,.13.03.24.1.32.07.09.2.17.38.25.19.08.47.18.85.29.67.18,1.17.43,1.5.74.33.31.49.73.49,1.27,0,.42-.12.79-.37,1.1-.24.31-.57.55-.99.71-.42.16-.88.25-1.39.25s-1.02-.08-1.46-.25c-.44-.16-.82-.39-1.13-.68l.84-.94c.54.42,1.1.62,1.7.62.32,0,.57-.06.76-.19.19-.12.28-.29.28-.51,0-.17-.04-.3-.11-.4-.07-.1-.2-.19-.4-.27-.19-.08-.49-.18-.9-.29-.64-.18-1.11-.43-1.42-.75-.31-.32-.46-.73-.46-1.21,0-.36.1-.68.31-.97s.5-.51.88-.68c.38-.16.82-.25,1.33-.25.9,0,1.66.26,2.3.77ZM183.85,211.25c.07.12.19.2.36.26l-.36,1.13c-.38-.03-.68-.12-.92-.26-.24-.14-.42-.37-.55-.67-.42.64-1.05.96-1.91.96-.63,0-1.13-.18-1.51-.55s-.56-.84-.56-1.42c0-.7.25-1.23.76-1.6.5-.37,1.23-.55,2.17-.55h.73v-.31c0-.39-.09-.66-.26-.82-.18-.15-.47-.23-.88-.23-.45,0-1.01.11-1.68.34l-.38-1.14c.79-.31,1.58-.47,2.35-.47.86,0,1.5.19,1.91.56s.61.93.61,1.66v2.57c0,.25.04.43.11.55ZM182.08,210.72v-1.21h-.56c-.92,0-1.38.34-1.38,1.03,0,.28.07.5.21.65.14.16.34.23.61.23.48,0,.86-.24,1.13-.71ZM193.54,206.43c.31.34.46.81.46,1.4v4.63h-1.7v-4.34c0-.62-.21-.94-.62-.94-.22,0-.42.07-.59.22-.17.14-.34.37-.52.67v4.39h-1.7v-4.34c0-.62-.21-.94-.62-.94-.22,0-.42.07-.59.22-.17.15-.34.37-.5.67v4.39h-1.7v-6.36h1.48l.13.79c.24-.32.51-.56.81-.73s.65-.25,1.04-.25c.36,0,.67.09.94.27.26.18.46.43.58.76.26-.34.55-.6.86-.77s.66-.26,1.05-.26c.5,0,.91.17,1.22.52ZM200.48,206.42c.32.34.47.81.47,1.41v4.63h-1.7v-4.34c0-.34-.06-.59-.18-.73-.12-.14-.29-.21-.52-.21-.45,0-.86.29-1.22.88v4.4h-1.7v-8.89l1.7-.18v3.43c.26-.3.53-.53.83-.68.3-.15.64-.23,1.01-.23.55,0,.99.17,1.3.51ZM207.91,209.8h-3.97c.06.58.21.98.47,1.22.26.24.6.36,1.04.36.27,0,.53-.04.77-.13.24-.09.5-.23.78-.42l.71.96c-.71.58-1.52.86-2.41.86-1,0-1.77-.3-2.3-.9s-.8-1.41-.8-2.44c0-.65.11-1.23.34-1.75.23-.52.56-.92,1-1.22.44-.3.95-.44,1.55-.44.9,0,1.61.28,2.11.85.5.57.76,1.36.76,2.38,0,.08-.01.3-.04.66ZM206.26,208.66c0-1.06-.38-1.58-1.14-1.58-.35,0-.63.13-.82.39-.2.26-.31.68-.35,1.27h2.32v-.07ZM212.99,212.16c-.23.16-.49.28-.79.37-.29.08-.58.13-.87.13-.66,0-1.15-.2-1.49-.56-.34-.37-.5-.91-.5-1.62v-3.17h-.95v-1.2h.95v-1.39l1.7-.2v1.6h1.46l-.17,1.2h-1.3v3.13c0,.3.05.52.16.66.1.14.26.2.48.2s.46-.07.72-.22l.59,1.08ZM218.16,206.68l-.65.97c-.54-.34-1.06-.5-1.58-.5-.28,0-.5.05-.65.16-.15.1-.23.24-.23.42,0,.13.03.24.1.32.07.09.2.17.38.25.19.08.47.18.85.29.67.18,1.17.43,1.5.74.33.31.49.73.49,1.27,0,.42-.12.79-.37,1.1-.24.31-.57.55-.99.71-.42.16-.88.25-1.39.25s-1.02-.08-1.46-.25c-.44-.16-.82-.39-1.13-.68l.84-.94c.54.42,1.1.62,1.7.62.32,0,.57-.06.76-.19.19-.12.28-.29.28-.51,0-.17-.04-.3-.11-.4-.07-.1-.2-.19-.4-.27-.19-.08-.49-.18-.9-.29-.64-.18-1.11-.43-1.42-.75-.31-.32-.46-.73-.46-1.21,0-.36.1-.68.31-.97s.5-.51.88-.68c.38-.16.82-.25,1.33-.25.9,0,1.66.26,2.3.77ZM223.81,206.68l-.65.97c-.54-.34-1.06-.5-1.58-.5-.28,0-.5.05-.65.16-.15.1-.23.24-.23.42,0,.13.03.24.1.32.07.09.2.17.38.25.19.08.47.18.85.29.67.18,1.17.43,1.5.74.33.31.49.73.49,1.27,0,.42-.12.79-.37,1.1-.24.31-.57.55-.99.71-.42.16-.88.25-1.39.25s-1.02-.08-1.46-.25c-.44-.16-.82-.39-1.13-.68l.84-.94c.54.42,1.1.62,1.7.62.32,0,.57-.06.76-.19.19-.12.28-.29.28-.51,0-.17-.04-.3-.11-.4-.07-.1-.2-.19-.4-.27-.19-.08-.49-.18-.9-.29-.64-.18-1.11-.43-1.42-.75-.31-.32-.46-.73-.46-1.21,0-.36.1-.68.31-.97s.5-.51.88-.68c.38-.16.82-.25,1.33-.25.9,0,1.66.26,2.3.77ZM228.95,212.16c-.23.16-.49.28-.79.37-.29.08-.58.13-.87.13-.66,0-1.15-.2-1.49-.56-.34-.37-.5-.91-.5-1.62v-3.17h-.95v-1.2h.95v-1.39l1.7-.2v1.6h1.46l-.17,1.2h-1.3v3.13c0,.3.05.52.16.66.1.14.26.2.48.2s.46-.07.72-.22l.59,1.08ZM234.41,206.8c.54.6.8,1.42.8,2.48,0,.67-.12,1.26-.37,1.77-.24.51-.6.9-1.06,1.18s-1,.42-1.63.42c-.95,0-1.7-.3-2.24-.89-.54-.6-.81-1.42-.81-2.48,0-.67.12-1.26.37-1.77.24-.51.6-.9,1.06-1.18.46-.28,1.01-.42,1.64-.42.95,0,1.7.3,2.23.89ZM231.44,203.22c.17.17.26.38.26.63s-.09.46-.26.63c-.17.17-.39.26-.64.26s-.46-.09-.64-.26-.26-.38-.26-.63.09-.46.26-.63c.18-.17.39-.26.64-.26s.47.09.64.26ZM231.21,207.69c-.21.34-.32.87-.32,1.59s.11,1.25.32,1.59c.21.34.53.51.95.51s.74-.17.95-.51c.21-.34.32-.87.32-1.59s-.1-1.25-.31-1.59c-.21-.34-.52-.51-.95-.51s-.75.17-.97.51ZM234.16,203.22c.18.17.26.38.26.63s-.09.46-.26.63-.39.26-.65.26-.46-.09-.63-.26-.26-.38-.26-.63.09-.46.26-.63c.17-.17.38-.26.63-.26s.47.09.65.26ZM242.01,203.57v8.89h-1.5l-.1-.78c-.45.65-1.06.97-1.82.97s-1.38-.3-1.79-.91-.62-1.43-.62-2.47c0-.66.11-1.24.32-1.75.21-.51.51-.91.91-1.19.39-.29.84-.43,1.36-.43.59,0,1.11.21,1.55.64v-3.17l1.7.19ZM239.76,211.2c.19-.12.38-.32.55-.58v-2.84c-.17-.2-.34-.35-.51-.45-.17-.1-.37-.15-.59-.15-.39,0-.7.17-.92.52-.22.34-.33.88-.33,1.6,0,.76.1,1.3.29,1.62.2.32.48.48.85.48.25,0,.47-.06.66-.19ZM249.03,209.8h-3.97c.06.58.21.98.47,1.22.26.24.6.36,1.04.36.27,0,.53-.04.77-.13.24-.09.5-.23.78-.42l.71.96c-.71.58-1.52.86-2.41.86-1,0-1.77-.3-2.3-.9s-.8-1.41-.8-2.44c0-.65.11-1.23.34-1.75.23-.52.56-.92,1-1.22.44-.3.95-.44,1.55-.44.9,0,1.61.28,2.11.85.5.57.76,1.36.76,2.38,0,.08-.01.3-.04.66ZM247.38,208.66c0-1.06-.38-1.58-1.14-1.58-.35,0-.63.13-.82.39-.2.26-.31.68-.35,1.27h2.32v-.07ZM254.11,212.16c-.23.16-.49.28-.79.37-.29.08-.58.13-.87.13-.66,0-1.15-.2-1.49-.56-.34-.37-.5-.91-.5-1.62v-3.17h-.95v-1.2h.95v-1.39l1.7-.2v1.6h1.46l-.17,1.2h-1.3v3.13c0,.3.05.52.16.66.1.14.26.2.48.2s.46-.07.72-.22l.59,1.08Z"/>
      <polygon id="vsh_e_symbol" class="cls-4" points="47.71 192.99 39.07 199.27 42.37 209.43 53.05 209.43 56.36 199.27 47.71 192.99"/>
    </g>
  </g>
</svg>